<?xml version="1.0" encoding="utf-8"?>
<!-- Generator: Adobe Illustrator 21.0.0, SVG Export Plug-In . SVG Version: 6.00 Build 0)  -->
<svg version="1.1" id="sprte" xmlns="http://www.w3.org/2000/svg" xmlns:xlink="http://www.w3.org/1999/xlink" x="0px" y="0px"
	 width="500px" height="500px" viewBox="0 0 500 500" style="enable-background:new 0 0 500 500;" xml:space="preserve">
<style type="text/css">
	.st0{fill:#0C3156;}
	.st1{fill:#FFFFFF;}
	.st2{fill:#01A8E2;}
	.st3{fill:#3B70A1;}
	.st4{fill:#E65448;}
	.st5{fill:#2688CA;}
	.st6{fill:#D0433B;}
	.st7{fill:#0CA7E0;}
	.st8{fill:#E5E5E5;}
	.st9{fill:#BEBEBE;}
	.st10{fill:#C5D3ED;}
	.st11{fill:#616161;}
	.st12{fill:#00A7E1;}
	.st13{opacity:0.5;fill:#FFFFFF;enable-background:new    ;}
	.st14{opacity:0.8;fill:#FFFFFF;enable-background:new    ;}
	.st15{opacity:0.9;fill:#FFFFFF;enable-background:new    ;}
	.st16{opacity:0.7;fill:#FFFFFF;enable-background:new    ;}
	.st17{opacity:0.4;fill:#FFFFFF;enable-background:new    ;}
	.st18{fill:#A5B0B9;}
	.st19{fill:url(#SVGID_1_);}
	.st20{fill:#305891;}
	.st21{fill:#CE4D39;}
	.st22{fill:#2CA8D2;}
	.st23{fill:#29A628;}
	.st24{fill:#C82828;}
	.st25{fill:#385988;}
	.st26{fill:#0FA6E0;}
	.st27{fill:#638F21;}
</style>
<path id="cart_x5F_header" class="st0" d="M7,10.6c-0.6,0-1.1,0.5-1.1,1.2S6.4,13,7,13s1.1-0.5,1.1-1.2C8.2,11.2,7.6,10.6,7,10.6z
	 M11.3,10.6c-0.6,0-1.1,0.5-1.1,1.2s0.5,1.2,1.1,1.2s1.1-0.5,1.1-1.2C12.5,11.2,12,10.6,11.3,10.6z M16.9,2.3
	C16.8,2.1,16.6,2,16.5,2h-0.1H4.9l0,0l0.4,1.4h10l0,0l-2.1,5.1H5.6l-2.4-8C3.1,0.2,2.9,0,2.6,0h-2C0.3,0,0,0.3,0,0.7
	s0.3,0.7,0.6,0.7h1.5l2.4,8c0.1,0.3,0.3,0.5,0.6,0.5h8.5c0.3,0,0.5-0.2,0.6-0.4L16.9,3C17,2.7,17,2.5,16.9,2.3z"/>
<path id="header_x5F_search" class="st1" d="M27.3,14.5c-4,0-7.3-3.2-7.3-7.2S23.3,0,27.3,0s7.3,3.2,7.3,7.2S31.3,14.5,27.3,14.5z
	 M27.3,2.5c-2.6,0-4.8,2.1-4.8,4.8s2.2,4.8,4.8,4.8s4.8-2.1,4.8-4.8S29.9,2.5,27.3,2.5z M34.7,12.3c-0.7,0.9-1.5,1.7-2.4,2.4
	l4.3,4.3l2.4-2.4L34.7,12.3z"/>
<path id="home" class="st1" d="M43,15h4v-4h3v4h4V9h3l-8-9l-9,9h3V15z"/>
<path id="home_1_" class="st2" d="M63,15h4v-4h3v4h4V9h3l-8-9l-9,9h3V15z"/>
<g id="Nav">
	<path id="header_x5F_search_1_" class="st1" d="M9.2,38.3c-5.1,0-9.2-4.1-9.2-9.1S4.1,20,9.2,20s9.2,4.1,9.2,9.1
		S14.3,38.3,9.2,38.3z M9.2,23.1c-3.3,0-6.1,2.7-6.1,6s2.7,6,6.1,6s6.1-2.7,6.1-6S12.6,23.1,9.2,23.1z M18.5,35.6
		c-0.8,1.2-1.9,2.2-3.1,3L21,44l3-3L18.5,35.6z"/>
	<path id="nav_x5F_hamburger" class="st1" d="M30,20v4h24v-4H30z M30,44h24v-4H30V44z M30,34h24v-4H30V34z"/>
	<path id="nav_x5F_user_2_" class="st1" d="M79.1,27c0,3.9-3.1,7-7,7s-7-3.1-7-7s3.1-7,7-7C75.9,20,79.1,23.1,79.1,27z M77.8,34.3
		c-1.6,1.3-3.7,2-5.8,2c-2.1,0-4.2-0.7-5.8-2c-4.3,1.6-6.2,7.1-6.2,9.6h24C84,41.4,82.1,35.9,77.8,34.3z"/>
	<path id="nav_x5F_cart" class="st1" d="M102.9,39.7c-1.2,0-2.1,1-2.1,2.2s0.9,2.2,2.1,2.2s2.1-1,2.1-2.2
		C105.1,40.6,104.1,39.7,102.9,39.7z M110.9,39.7c-1.2,0-2.1,1-2.1,2.2s0.9,2.2,2.1,2.2s2.1-1,2.1-2.2
		C113,40.6,112.1,39.7,110.9,39.7z M121.2,24.2c-0.2-0.3-0.5-0.5-0.8-0.5c-0.1,0-0.2-0.1-0.3-0.1h-21l0,0l0.8,2.5h18.5l0,0l-3.9,9.4
		h-14L96,20.8c-0.2-0.5-0.6-0.9-1.2-0.9h-3.6c-0.7,0-1.2,0.6-1.2,1.2c0,0.7,0.5,1.3,1.2,1.3h2.7l4.5,14.7c0.2,0.5,0.6,0.9,1.2,0.9
		h15.6c0.5,0,0.9-0.3,1.1-0.7l5-12C121.4,25,121.4,24.5,121.2,24.2z"/>
	<path id="nav_x5F_count_1_" class="st1" d="M141.6,40.2c-1.1,0-1.9,0.9-1.9,1.9c0,1.1,0.9,1.9,1.9,1.9s1.9-0.9,1.9-1.9
		C143.6,41.1,142.7,40.2,141.6,40.2z M148.8,40.2c-1.1,0-1.9,0.9-1.9,1.9c0,1.1,0.9,1.9,1.9,1.9s1.9-0.9,1.9-1.9
		C150.7,41.1,149.9,40.2,148.8,40.2z M157.6,26.2c-0.6-0.2-1.2,0-1.4,0.5l-4.3,9.9h-12.5l-4.1-12.9c-0.1-0.5-0.6-0.8-1-0.8h-3.2
		c-0.6,0-1.1,0.5-1.1,1.1s0.5,1.1,1.1,1.1h2.4l4.1,12.9c0.1,0.5,0.6,0.8,1,0.8h14.1c0.4,0,0.8-0.3,1-0.7l2.2-5.1l2.4-5.5
		C158.4,27.1,158.2,26.4,157.6,26.2z"/>
</g>
<g id="Nav_1_">
	<path id="header_x5F_search_2_" class="st0" d="M9.2,68.3c-5.1,0-9.2-4.1-9.2-9.1s4.1-9.1,9.2-9.1s9.2,4.1,9.2,9.1
		C18.4,64.2,14.3,68.3,9.2,68.3z M9.2,53.1c-3.3,0-6.1,2.7-6.1,6s2.7,6,6.1,6s6.1-2.7,6.1-6S12.6,53.1,9.2,53.1z M18.5,65.6
		c-0.8,1.2-1.9,2.2-3.1,3L21,74l3-3L18.5,65.6z"/>
	<path id="nav_x5F_hamburger_1_" class="st0" d="M29.9,50v4h24v-4H29.9z M29.9,74h24v-4h-24C29.9,70,29.9,74,29.9,74z M29.9,64h24
		v-4h-24C29.9,60,29.9,64,29.9,64z"/>
	<path id="nav_x5F_user_1_" class="st0" d="M78.9,57c0,3.9-3.1,7-7,7s-7-3.1-7-7s3.1-7,7-7S78.9,53.1,78.9,57z M77.7,64.4
		c-1.6,1.3-3.7,2-5.8,2c-2.1,0-4.2-0.7-5.8-2c-4.3,1.6-6.2,7.1-6.2,9.7h24C83.9,71.5,81.9,66,77.7,64.4z"/>
	<path id="nav_x5F_cart_1_" class="st0" d="M102.6,69.7c-1.2,0-2.1,1-2.1,2.2s0.9,2.2,2.1,2.2s2.1-1,2.1-2.2
		C104.7,70.6,103.8,69.7,102.6,69.7z M110.5,69.7c-1.2,0-2.1,1-2.1,2.2s0.9,2.2,2.1,2.2s2.1-1,2.1-2.2
		C112.6,70.6,111.7,69.7,110.5,69.7z M120.6,54.2c-0.2-0.3-0.5-0.5-0.8-0.5c-0.1,0-0.2-0.1-0.3-0.1H98.8l0,0l0.8,2.5h18.2l0,0
		l-3.9,9.4h-13.8l-4.5-14.7c-0.2-0.5-0.6-0.9-1.1-0.9H91c-0.7,0-1.2,0.6-1.2,1.2c0,0.7,0.5,1.3,1.2,1.3h2.6l4.5,14.7
		c0.2,0.5,0.6,0.9,1.1,0.9h15.5c0.5,0,0.9-0.3,1.1-0.7l4.9-12C120.9,55,120.9,54.5,120.6,54.2z"/>
	<path id="nav_x5F_count" class="st0" d="M141.3,70.2c-1,0-1.9,0.9-1.9,1.9c0,1.1,0.8,1.9,1.9,1.9c1,0,1.9-0.9,1.9-1.9
		S142.3,70.2,141.3,70.2z M148.4,70.2c-1,0-1.9,0.9-1.9,1.9c0,1.1,0.8,1.9,1.9,1.9c1,0,1.9-0.9,1.9-1.9
		C150.3,71.1,149.4,70.2,148.4,70.2z M157.1,56.2c-0.6-0.2-1.2,0-1.4,0.5l-4.3,9.9H139l-4-12.9c-0.1-0.5-0.6-0.8-1-0.8h-3.2
		c-0.6,0-1.1,0.5-1.1,1.1s0.5,1.1,1.1,1.1h2.4l4,12.9c0.1,0.5,0.6,0.8,1,0.8h13.9c0.4,0,0.8-0.3,1-0.7l2.1-5.1l2.4-5.5
		C157.9,57.1,157.6,56.4,157.1,56.2z"/>
</g>
<g id="Facebook_2_">
	<circle id="Facebook_1_" class="st3" cx="12" cy="92" r="12"/>
	<path id="Facebook" class="st1" d="M10.1,87.7c0,0.4,0,1.9,0,1.9H8.7V92h1.4v7H13v-7h2c0,0,0.2-1.1,0.3-2.4c-0.3,0-2.2,0-2.2,0
		s0-1.4,0-1.6s0.3-0.6,0.6-0.6s1,0,1.6,0c0-0.3,0-1.4,0-2.5c-0.8,0-1.7,0-2.1,0C10.1,85,10.1,87.4,10.1,87.7z"/>
</g>
<g id="YouTube_2_">
	<circle id="YouTube_1_" class="st4" cx="42" cy="92" r="12"/>
	<polygon id="YouTube" class="st1" points="38.3,86 38.3,98 47.7,92 	"/>
</g>
<g id="Twitter_2_">
	<circle id="Twitter_1_" class="st5" cx="72" cy="92" r="12"/>
	<path id="Twitter" class="st1" d="M79.4,87.4c-0.5,0.2-1.1,0.4-1.7,0.5c0.6-0.4,1.1-1,1.3-1.7c-0.6,0.3-1.2,0.6-1.9,0.7
		c-0.6-0.6-1.3-1-2.2-1c-1.7,0-3,1.4-3,3c0,0.2,0,0.5,0.1,0.7c-2.5-0.1-4.8-1.3-6.2-3.2c-0.3,0.4-0.4,1-0.4,1.5c0,1.1,0.5,2,1.3,2.5
		c-0.5,0-1-0.2-1.4-0.4l0,0c0,1.5,1,2.7,2.4,3c-0.3,0.1-0.5,0.1-0.8,0.1c-0.2,0-0.4,0-0.6-0.1c0.4,1.2,1.5,2.1,2.8,2.1
		c-1,0.8-2.3,1.3-3.8,1.3c-0.2,0-0.5,0-0.7,0c1.3,0.9,2.9,1.4,4.6,1.4c5.6,0,8.6-4.6,8.6-8.6v-0.4C78.5,88.6,79,88,79.4,87.4z"/>
</g>
<g id="GooglePlus_2_">
	<circle id="GooglePlus_1_" class="st6" cx="102" cy="92" r="12"/>
	<path id="GooglePlus" class="st1" d="M104.1,85h-3.3c-1.5,0-2.5,0.3-3.4,1.1c-0.7,0.6-1.2,1.5-1.2,2.4c0,1.4,1.1,2.9,3,2.9
		c0.2,0,0.4,0,0.6,0v0.1c-0.1,0.2-0.2,0.4-0.2,0.6c0,0.5,0.3,0.9,0.5,1.2l0,0H100c-0.8,0.1-2.3,0.2-3.4,0.8
		c-1.3,0.8-1.4,1.9-1.4,2.2c0,1.3,1.2,2.6,3.9,2.6c3.1,0,4.8-1.7,4.8-3.4c0-1.3-0.7-1.9-1.5-2.6l-0.7-0.5c-0.2-0.2-0.5-0.4-0.5-0.8
		s0.3-0.6,0.5-0.9l0,0c0.7-0.6,1.5-1.2,1.5-2.6s-0.9-2.1-1.3-2.5h1.1l0,0L104.1,85C104.1,85.1,104.1,85.1,104.1,85L104.1,85z
		 M102.7,96.3c0,1.2-1,2-2.7,2c-1.9,0-3.2-0.9-3.2-2.2c0-0.9,0.5-1.5,1.6-1.9c0.8-0.3,1.9-0.3,1.9-0.3c0.2,0,0.3,0,0.4,0
		C102,94.8,102.7,95.3,102.7,96.3z M101.2,90.4c-0.3,0.3-0.8,0.5-1.2,0.5c-1.6,0-2.3-2.1-2.3-3.2c0-0.6,0.1-1,0.4-1.4
		s0.8-0.6,1.3-0.6c1.5,0,2.3,2,2.3,3.4C101.7,89.3,101.7,89.9,101.2,90.4z M108.7,91.5H107v-1.8c0,0,0-0.1-0.1-0.1h-0.8
		c0,0-0.1,0-0.1,0.1v1.8h-1.8c0,0-0.1,0-0.1,0.1v0.8c0,0,0,0.1,0.1,0.1h1.8v1.8c0,0,0,0.1,0.1,0.1h0.8c0,0,0.1,0,0.1-0.1v-1.8h1.8
		c0,0,0.1,0,0.1-0.1L108.7,91.5C108.8,91.6,108.8,91.5,108.7,91.5z"/>
</g>
<path id="Phone" class="st1" d="M132,80c-6.6,0-12,5.4-12,12s5.4,12,12,12c6.6,0,12-5.4,12-12S138.6,80,132,80z M130.2,84l2.2,4.3
	l-1.3,0.7l-2.2-4.3L130.2,84z M128.4,94c-3.7-7.4-1.2-8.5-0.3-9l2.2,4.4c-1.4,0.8,1.5,6.5,2.9,5.8l2.2,4.4
	C134.4,100.1,132.1,101.4,128.4,94z M136.2,99.2l-2.2-4.3l1.3-0.7l2.2,4.3L136.2,99.2z"/>
<path class="st0" d="M7,110c-3.9,0-7,3.1-7,7s3.1,7,7,7s7-3.1,7-7S10.9,110,7,110z M7,122.5c-3,0-5.5-2.4-5.5-5.5
	c0-3,2.4-5.5,5.5-5.5c3,0,5.5,2.4,5.5,5.5C12.5,120,10,122.5,7,122.5z M7.1,112.5C7,112.5,7,112.5,7.1,112.5l-0.7,3.7l0,0L3,114.6
	c-0.1,0-0.1,0-0.1,0l0,0v0.1c1,0.9,3.3,3.1,3.6,3.3c0.1,0.1,0.2,0.1,0.2,0.1c0.1,0.1,0.2,0.1,0.2,0.1l0,0c0.5,0,0.9-0.4,0.9-0.8
	C7.8,117.1,7.3,113.8,7.1,112.5C7.2,112.5,7.1,112.5,7.1,112.5z"/>
<path class="st0" d="M18.6,121.1c-0.9,0-1.6,0.7-1.6,1.5s0.7,1.5,1.6,1.5s1.6-0.7,1.6-1.5C20.2,121.7,19.5,121.1,18.6,121.1z
	 M28.8,121.1c-0.9,0-1.6,0.7-1.6,1.5s0.7,1.5,1.6,1.5s1.6-0.7,1.6-1.5C30.4,121.7,29.7,121.1,28.8,121.1z M31.3,113.8
	c0-0.6-0.4-0.7-0.6-0.8H23v6.3h8.4v-5.5H31.3z M31.6,120.9h-0.3V120h-9.2v-7c0,0-0.6,0-3.2,0s-2.3,4.4-2.3,4.4l0,0
	c-0.2,0-0.6,0.2-0.7,0.8v2.6h-0.4c-0.2,0-0.4,0.2-0.4,0.4c0,0.2,0.2,0.4,0.4,0.4h1.3c0.3-0.7,1.1-1.2,1.9-1.2s1.6,0.5,1.9,1.2H27
	c0.3-0.7,1.1-1.2,1.9-1.2s1.6,0.5,1.9,1.2h0.9c0.2,0,0.4-0.2,0.4-0.4C32,121.1,31.8,120.9,31.6,120.9z M21.4,117.4h-3.9
	c0-1.8,0.4-2.7,0.8-3.2c0.5-0.4,1.1-0.4,1.1-0.4l0,0h2V117.4z"/>
<path class="st0" d="M36,118.5v-0.9h-0.5c-0.3,0-0.4-0.1-0.4-0.4v-0.6c0-0.3,0.1-0.4,0.4-0.4H36v-1.3c0-1.4,0.9-2.8,4-2.8
	s4,1.4,4,2.8v0.8c0,0.3-0.1,0.4-0.4,0.4h-1.4c-0.3,0-0.4-0.1-0.4-0.4v-0.4c0-0.9-0.6-1.3-1.7-1.3c-1.1,0-1.7,0.4-1.7,1.3v0.9H40
	c0.3,0,0.4,0.1,0.4,0.4v0.6c0,0.3-0.1,0.4-0.4,0.4h-1.7v0.9H40c0.3,0,0.4,0.1,0.4,0.4v0.6c0,0.3-0.1,0.4-0.4,0.4h-1.7v0.8
	c0,0.9,0.6,1.3,1.7,1.3c1.1,0,1.7-0.4,1.7-1.3V120c0-0.3,0.1-0.4,0.4-0.4h1.4c0.3,0,0.4,0.1,0.4,0.4v1.1c0,1.4-0.9,2.8-4,2.8
	s-4-1.4-4-2.8v-1.3h-0.5c-0.3,0-0.4-0.1-0.4-0.4v-0.6c0-0.3,0.1-0.4,0.4-0.4L36,118.5L36,118.5z"/>
<path class="st0" d="M55.3,113.7c0.1-0.2,0.5-1.1-0.1-2c-0.7-1-2.5-0.9-3-0.1c-0.5,0.7-0.7,0.9-0.7,1c0,0-0.2-0.2-0.7-1
	c-0.6-0.8-2.3-0.9-3,0.1c-0.6,0.9-0.2,1.7-0.1,2H45v2.3h13v-2.3H55.3z M48.9,113.7c0,0-0.8-0.6-0.5-1.3c0.2-0.8,1.5-0.6,1.9-0.1
	s0.5,0.9,0.5,0.9l0.2,0.6L48.9,113.7z M54,113.7h-2.1l0.2-0.6c0,0,0.1-0.3,0.5-0.9c0.4-0.5,1.7-0.7,1.9,0.1
	C54.8,113.1,54,113.7,54,113.7z M53.7,116.8l1.4,2.5l-1.2-0.1l-0.6,0.9l-1.8-3.3l-1.8,3.3l-0.6-0.9l-1.2,0.1l1.5-2.7l0.1-0.1H46v7.5
	h11.1v-7.5h-3.5L53.7,116.8z"/>
<path class="st7" d="M97.6,4.7L97.6,4.7l-0.5-0.4l-4.5-4c-0.5-0.4-1.3-0.4-1.8,0l-0.5,0.4c-0.5,0.4-0.5,1.2,0,1.6l3.5,3.2l-3.5,3.1
	c-0.5,0.4-0.5,1.2,0,1.6l0.5,0.4c0.5,0.4,1.3,0.4,1.8,0L97,6.9l0.1-0.1l0.5-0.4C98.1,5.9,98.1,5.2,97.6,4.7z"/>
<path class="st7" d="M80.4,6.3l0.5,0.4L81,6.8l4.3,3.8c0.5,0.4,1.3,0.4,1.8,0l0.5-0.4c0.5-0.4,0.5-1.2,0-1.6l-3.5-3.1l3.5-3.2
	c0.5-0.4,0.5-1.2,0-1.6l-0.5-0.4c-0.5-0.4-1.3-0.4-1.8,0l-4.5,4l-0.5,0.4l0,0C79.9,5.2,79.9,5.9,80.4,6.3z"/>
<path class="st8" d="M117.6,4.7L117.6,4.7l-0.5-0.4l-4.5-4c-0.5-0.4-1.3-0.4-1.8,0l-0.5,0.4c-0.5,0.4-0.5,1.2,0,1.6l3.5,3.2
	l-3.5,3.1c-0.5,0.4-0.5,1.2,0,1.6l0.5,0.4c0.5,0.4,1.3,0.4,1.8,0l4.3-3.8l0.1-0.1l0.5-0.4C118.1,5.9,118.1,5.2,117.6,4.7z"/>
<path class="st8" d="M100.4,6.3l0.5,0.4l0.1,0.1l4.3,3.8c0.5,0.4,1.3,0.4,1.8,0l0.5-0.4c0.5-0.4,0.5-1.2,0-1.6l-3.5-3.1l3.5-3.2
	c0.5-0.4,0.5-1.2,0-1.6l-0.5-0.4c-0.5-0.4-1.3-0.4-1.8,0l-4.5,4l-0.5,0.4l0,0C99.9,5.2,99.9,5.9,100.4,6.3z"/>
<path id="grid_x5F_active" class="st7" d="M120,7h7V0h-7V7z M129,0v7h7V0H129z M129,16h7V9h-7V16z M120,16h7V9h-7V16z"/>
<path id="grid_x5F_inactive" class="st9" d="M140,7h7V0h-7V7z M149,0v7h7V0H149z M149,16h7V9h-7V16z M140,16h7V9h-7V16z"/>
<path id="list_x5F_active" class="st7" d="M160,4h4V0h-4V4z M165,0v4h11V0H165z M160,10h4V6h-4V10z M165,10h11V6h-11V10z M160,16h4
	v-4h-4V16z M165,16h11v-4h-11V16z"/>
<path id="list_x5F_inactive" class="st9" d="M180,4h4V0h-4V4z M185,0v4h11V0H185z M180,10h4V6h-4V10z M185,10h11V6h-11V10z M180,16
	h4v-4h-4V16z M185,16h11v-4h-11V16z"/>
<g id="stars_x5F_inactive">
	<path class="st10" d="M7.9,130c-4.4,0-7.9,3.6-7.9,8s3.6,8,7.9,8c4.4,0,7.9-3.6,7.9-8C15.9,133.6,12.3,130,7.9,130z M26,130
		c-4.4,0-7.9,3.6-7.9,8s3.6,8,7.9,8c4.4,0,7.9-3.6,7.9-8S30.3,130,26,130z M44,130c-4.4,0-7.9,3.6-7.9,8s3.6,8,7.9,8
		c4.4,0,7.9-3.6,7.9-8S48.4,130,44,130z M62,130c-4.4,0-7.9,3.6-7.9,8s3.6,8,7.9,8c4.4,0,7.9-3.6,7.9-8C70,133.6,66.4,130,62,130z
		 M80.1,130c-4.4,0-7.9,3.6-7.9,8s3.6,8,7.9,8c4.4,0,7.9-3.6,7.9-8S84.4,130,80.1,130z"/>
	<path class="st1" d="M11.9,136.7l-2.4-0.4l-1.1-2.2c-0.2-0.3-0.7-0.3-0.8,0l-1.1,2.2L4,136.7c-0.2,0-0.3,0.2-0.4,0.3
		c-0.1,0.2,0,0.4,0.1,0.5l1.8,1.7l-0.4,2.4c0,0.2,0,0.4,0.2,0.5c0.1,0.1,0.3,0.1,0.5,0L8,141l2.2,1.1c0.1,0,0.1,0.1,0.2,0.1
		c0.1,0,0.2,0,0.3-0.1s0.2-0.3,0.2-0.5l-0.4-2.4l1.8-1.7c0.1-0.1,0.2-0.3,0.1-0.5C12.2,136.8,12,136.7,11.9,136.7z M29.9,136.7
		l-2.4-0.4l-1.1-2.2c-0.2-0.3-0.7-0.3-0.8,0l-1.1,2.2l-2.4,0.4c-0.2,0-0.3,0.2-0.4,0.3c-0.1,0.2,0,0.4,0.1,0.5l1.8,1.7l-0.4,2.4
		c0,0.2,0,0.4,0.2,0.5c0.1,0.1,0.3,0.1,0.5,0L26,141l2.2,1.1c0.1,0,0.1,0.1,0.2,0.1s0.2,0,0.3-0.1c0.1-0.1,0.2-0.3,0.2-0.5l-0.4-2.4
		l1.8-1.7c0.1-0.1,0.2-0.3,0.1-0.5C30.2,136.8,30.1,136.7,29.9,136.7z M47.9,136.7l-2.4-0.4l-1.1-2.2c-0.2-0.3-0.7-0.3-0.8,0
		l-1.1,2.2l-2.4,0.4c-0.2,0-0.3,0.2-0.4,0.3c-0.1,0.2,0,0.4,0.1,0.5l1.8,1.7l-0.4,2.4c0,0.2,0,0.4,0.2,0.5c0.1,0.1,0.3,0.1,0.5,0
		L44,141l2.2,1.1c0.1,0,0.1,0.1,0.2,0.1c0.1,0,0.2,0,0.3-0.1s0.2-0.3,0.2-0.5l-0.4-2.4l1.8-1.7c0.1-0.1,0.2-0.3,0.1-0.5
		C48.2,136.8,48.1,136.7,47.9,136.7z M66,136.7l-2.4-0.4l-1.1-2.2c-0.2-0.3-0.7-0.3-0.8,0l-1.1,2.2l-2.4,0.4c-0.2,0-0.3,0.2-0.4,0.3
		c-0.1,0.2,0,0.4,0.1,0.5l1.8,1.7l-0.4,2.4c0,0.2,0,0.4,0.2,0.5c0.1,0.1,0.3,0.1,0.5,0l2-1.1l2.2,1.1c0.1,0,0.1,0.1,0.2,0.1
		s0.2,0,0.3-0.1c0.1-0.1,0.2-0.3,0.2-0.5l-0.4-2.4l1.8-1.7c0.1-0.1,0.2-0.3,0.1-0.5C66.3,136.8,66.1,136.7,66,136.7z M84.4,137
		c-0.1-0.2-0.2-0.3-0.4-0.3l-2.4-0.4l-1.1-2.2c-0.2-0.3-0.7-0.3-0.8,0l-1.1,2.2l-2.4,0.4c-0.2,0-0.3,0.2-0.4,0.3
		c-0.1,0.2,0,0.4,0.1,0.5l1.8,1.7l-0.4,2.4c0,0.2,0,0.4,0.2,0.5c0.1,0.1,0.3,0.1,0.5,0l2.2-1.1l2.2,1.1c0.1,0,0.1,0.1,0.2,0.1
		s0.2,0,0.3-0.1c0.1-0.1,0.2-0.3,0.2-0.5l-0.4-2.4l1.8-1.7C84.4,137.3,84.4,137.1,84.4,137z"/>
</g>
<g id="stars_x5F_active">
	<path class="st7" d="M7.9,150c-4.4,0-7.9,3.6-7.9,8s3.6,8,7.9,8c4.4,0,7.9-3.6,7.9-8C15.9,153.6,12.3,150,7.9,150z M26,150
		c-4.4,0-7.9,3.6-7.9,8s3.6,8,7.9,8c4.4,0,7.9-3.6,7.9-8S30.3,150,26,150z M44,150c-4.4,0-7.9,3.6-7.9,8s3.6,8,7.9,8
		c4.4,0,7.9-3.6,7.9-8S48.4,150,44,150z M62,150c-4.4,0-7.9,3.6-7.9,8s3.6,8,7.9,8c4.4,0,7.9-3.6,7.9-8C70,153.6,66.4,150,62,150z
		 M80.1,150c-4.4,0-7.9,3.6-7.9,8s3.6,8,7.9,8c4.4,0,7.9-3.6,7.9-8S84.4,150,80.1,150z"/>
	<path class="st1" d="M11.9,156.7l-2.4-0.4l-1.1-2.2c-0.2-0.3-0.7-0.3-0.8,0l-1.1,2.2L4,156.7c-0.2,0-0.3,0.2-0.4,0.3
		c-0.1,0.2,0,0.4,0.1,0.5l1.8,1.7l-0.4,2.4c0,0.2,0,0.4,0.2,0.5c0.1,0.1,0.3,0.1,0.5,0L8,161l2.2,1.1c0.1,0,0.1,0.1,0.2,0.1
		c0.1,0,0.2,0,0.3-0.1s0.2-0.3,0.2-0.5l-0.4-2.4l1.8-1.7c0.1-0.1,0.2-0.3,0.1-0.5C12.2,156.8,12,156.7,11.9,156.7z M29.9,156.7
		l-2.4-0.4l-1.1-2.2c-0.2-0.3-0.7-0.3-0.8,0l-1.1,2.2l-2.4,0.4c-0.2,0-0.3,0.2-0.4,0.3c-0.1,0.2,0,0.4,0.1,0.5l1.8,1.7l-0.4,2.4
		c0,0.2,0,0.4,0.2,0.5c0.1,0.1,0.3,0.1,0.5,0L26,161l2.2,1.1c0.1,0,0.1,0.1,0.2,0.1s0.2,0,0.3-0.1c0.1-0.1,0.2-0.3,0.2-0.5l-0.4-2.4
		l1.8-1.7c0.1-0.1,0.2-0.3,0.1-0.5C30.2,156.8,30.1,156.7,29.9,156.7z M47.9,156.7l-2.4-0.4l-1.1-2.2c-0.2-0.3-0.7-0.3-0.8,0
		l-1.1,2.2l-2.4,0.4c-0.2,0-0.3,0.2-0.4,0.3c-0.1,0.2,0,0.4,0.1,0.5l1.8,1.7l-0.4,2.4c0,0.2,0,0.4,0.2,0.5c0.1,0.1,0.3,0.1,0.5,0
		L44,161l2.2,1.1c0.1,0,0.1,0.1,0.2,0.1c0.1,0,0.2,0,0.3-0.1s0.2-0.3,0.2-0.5l-0.4-2.4l1.8-1.7c0.1-0.1,0.2-0.3,0.1-0.5
		C48.2,156.8,48.1,156.7,47.9,156.7z M66,156.7l-2.4-0.4l-1.1-2.2c-0.2-0.3-0.7-0.3-0.8,0l-1.1,2.2l-2.4,0.4c-0.2,0-0.3,0.2-0.4,0.3
		c-0.1,0.2,0,0.4,0.1,0.5l1.8,1.7l-0.4,2.4c0,0.2,0,0.4,0.2,0.5c0.1,0.1,0.3,0.1,0.5,0l2-1.1l2.2,1.1c0.1,0,0.1,0.1,0.2,0.1
		s0.2,0,0.3-0.1c0.1-0.1,0.2-0.3,0.2-0.5l-0.4-2.4l1.8-1.7c0.1-0.1,0.2-0.3,0.1-0.5C66.3,156.8,66.1,156.7,66,156.7z M84.4,157
		c-0.1-0.2-0.2-0.3-0.4-0.3l-2.4-0.4l-1.1-2.2c-0.2-0.3-0.7-0.3-0.8,0l-1.1,2.2l-2.4,0.4c-0.2,0-0.3,0.2-0.4,0.3
		c-0.1,0.2,0,0.4,0.1,0.5l1.8,1.7l-0.4,2.4c0,0.2,0,0.4,0.2,0.5c0.1,0.1,0.3,0.1,0.5,0l2.2-1.1l2.2,1.1c0.1,0,0.1,0.1,0.2,0.1
		s0.2,0,0.3-0.1c0.1-0.1,0.2-0.3,0.2-0.5l-0.4-2.4l1.8-1.7C84.4,157.3,84.4,157.1,84.4,157z"/>
</g>
<g id="stars_x5F_big_x5F_inactive">
	<path class="st10" d="M9.2,170c-5.1,0-9.2,4-9.2,9s4.1,9,9.2,9s9.2-4,9.2-9S14.3,170,9.2,170z M30.1,170c-5.1,0-9.2,4-9.2,9
		s4.1,9,9.2,9s9.2-4,9.2-9C39.3,174,35.2,170,30.1,170z M51,170c-5.1,0-9.2,4-9.2,9s4.1,9,9.2,9s9.2-4,9.2-9S56.1,170,51,170z
		 M71.9,170c-5.1,0-9.2,4-9.2,9s4.1,9,9.2,9s9.2-4,9.2-9S77,170,71.9,170z M92.8,170c-5.1,0-9.2,4-9.2,9s4.1,9,9.2,9s9.2-4,9.2-9
		S97.9,170,92.8,170z"/>
	<path class="st1" d="M13.7,177.5l-2.8-0.4l-1.3-2.5c-0.2-0.4-0.8-0.4-1,0l-1.3,2.5l-2.8,0.4c-0.2,0-0.4,0.2-0.4,0.4
		c-0.1,0.2,0,0.4,0.1,0.5l2,1.9L5.7,183c0,0.2,0,0.4,0.2,0.5s0.4,0.1,0.6,0l2.5-1.3l2.5,1.3c0.1,0,0.2,0.1,0.2,0.1
		c0.1,0,0.2,0,0.3-0.1c0.2-0.1,0.2-0.3,0.2-0.5l-0.5-2.7l2-1.9c0.1-0.1,0.2-0.3,0.1-0.5C14.1,177.7,13.9,177.5,13.7,177.5z
		 M34.6,177.5l-2.8-0.4l-1.3-2.5c-0.2-0.4-0.8-0.4-1,0l-1.3,2.5l-2.8,0.4c-0.2,0-0.4,0.2-0.4,0.4c-0.1,0.2,0,0.4,0.1,0.5l2,1.9
		l-0.5,2.7c0,0.2,0,0.4,0.2,0.5s0.4,0.1,0.6,0l2.5-1.3l2.5,1.3c0.1,0,0.2,0.1,0.2,0.1c0.1,0,0.2,0,0.3-0.1c0.2-0.1,0.2-0.3,0.2-0.5
		l-0.5-2.7l2-1.9c0.1-0.1,0.2-0.3,0.1-0.5C35,177.7,34.8,177.5,34.6,177.5z M55.5,177.5l-2.8-0.4l-1.3-2.5c-0.2-0.4-0.8-0.4-1,0
		l-1.3,2.5l-2.8,0.4c-0.2,0-0.4,0.2-0.4,0.4c-0.1,0.2,0,0.4,0.1,0.5l2,1.9l-0.5,2.7c0,0.2,0,0.4,0.2,0.5s0.4,0.1,0.6,0l2.5-1.3
		l2.5,1.3c0.1,0,0.2,0.1,0.2,0.1c0.1,0,0.2,0,0.3-0.1c0.2-0.1,0.2-0.3,0.2-0.5l-0.5-2.7l2-1.9c0.1-0.1,0.2-0.3,0.1-0.5
		C55.9,177.7,55.7,177.5,55.5,177.5z M76.4,177.5l-2.8-0.4l-1.3-2.5c-0.2-0.4-0.8-0.4-1,0l-1.3,2.5l-2.8,0.4c-0.2,0-0.4,0.2-0.4,0.4
		c-0.1,0.2,0,0.4,0.1,0.5l2,1.9l-0.5,2.7c0,0.2,0,0.4,0.2,0.5s0.4,0.1,0.6,0l2.5-1.3l2.5,1.3c0.1,0,0.2,0.1,0.2,0.1
		c0.1,0,0.2,0,0.3-0.1c0.2-0.1,0.2-0.3,0.2-0.5l-0.5-2.7l2-1.9c0.1-0.1,0.2-0.3,0.1-0.5C76.8,177.7,76.7,177.5,76.4,177.5z
		 M97.8,177.8c-0.1-0.2-0.2-0.3-0.4-0.4l-2.8-0.4l-1.3-2.5c-0.2-0.4-0.8-0.4-1,0L91,177l-2.8,0.4c-0.2,0-0.4,0.2-0.4,0.4
		c-0.1,0.2,0,0.4,0.1,0.5l2,1.9l-0.5,2.7c0,0.2,0,0.4,0.2,0.5s0.4,0.1,0.6,0l2.5-1.3l2.5,1.3c0.1,0,0.2,0.1,0.2,0.1
		c0.1,0,0.2,0,0.3-0.1c0.2-0.1,0.2-0.3,0.2-0.5l-0.5-2.7l2-1.9C97.8,178.2,97.8,178,97.8,177.8z"/>
</g>
<g id="stars_x5F_big_x5F_active">
	<path class="st7" d="M9.2,190c-5.1,0-9.2,4-9.2,9s4.1,9,9.2,9s9.2-4,9.2-9S14.3,190,9.2,190z M30.1,190c-5.1,0-9.2,4-9.2,9
		s4.1,9,9.2,9s9.2-4,9.2-9C39.3,194,35.2,190,30.1,190z M51,190c-5.1,0-9.2,4-9.2,9s4.1,9,9.2,9s9.2-4,9.2-9S56.1,190,51,190z
		 M71.9,190c-5.1,0-9.2,4-9.2,9s4.1,9,9.2,9s9.2-4,9.2-9S77,190,71.9,190z M92.8,190c-5.1,0-9.2,4-9.2,9s4.1,9,9.2,9s9.2-4,9.2-9
		S97.9,190,92.8,190z"/>
	<path class="st1" d="M13.7,197.5l-2.8-0.4l-1.3-2.5c-0.2-0.4-0.8-0.4-1,0l-1.3,2.5l-2.8,0.4c-0.2,0-0.4,0.2-0.4,0.4
		c-0.1,0.2,0,0.4,0.1,0.5l2,1.9L5.7,203c0,0.2,0,0.4,0.2,0.5s0.4,0.1,0.6,0l2.5-1.3l2.5,1.3c0.1,0,0.2,0.1,0.2,0.1
		c0.1,0,0.2,0,0.3-0.1c0.2-0.1,0.2-0.3,0.2-0.5l-0.5-2.7l2-1.9c0.1-0.1,0.2-0.3,0.1-0.5C14.1,197.7,13.9,197.5,13.7,197.5z
		 M34.6,197.5l-2.8-0.4l-1.3-2.5c-0.2-0.4-0.8-0.4-1,0l-1.3,2.5l-2.8,0.4c-0.2,0-0.4,0.2-0.4,0.4c-0.1,0.2,0,0.4,0.1,0.5l2,1.9
		l-0.5,2.7c0,0.2,0,0.4,0.2,0.5s0.4,0.1,0.6,0l2.5-1.3l2.5,1.3c0.1,0,0.2,0.1,0.2,0.1c0.1,0,0.2,0,0.3-0.1c0.2-0.1,0.2-0.3,0.2-0.5
		l-0.5-2.7l2-1.9c0.1-0.1,0.2-0.3,0.1-0.5C35,197.7,34.8,197.5,34.6,197.5z M55.5,197.5l-2.8-0.4l-1.3-2.5c-0.2-0.4-0.8-0.4-1,0
		l-1.3,2.5l-2.8,0.4c-0.2,0-0.4,0.2-0.4,0.4c-0.1,0.2,0,0.4,0.1,0.5l2,1.9l-0.5,2.7c0,0.2,0,0.4,0.2,0.5s0.4,0.1,0.6,0l2.5-1.3
		l2.5,1.3c0.1,0,0.2,0.1,0.2,0.1c0.1,0,0.2,0,0.3-0.1c0.2-0.1,0.2-0.3,0.2-0.5l-0.5-2.7l2-1.9c0.1-0.1,0.2-0.3,0.1-0.5
		C55.9,197.7,55.7,197.5,55.5,197.5z M76.4,197.5l-2.8-0.4l-1.3-2.5c-0.2-0.4-0.8-0.4-1,0l-1.3,2.5l-2.8,0.4c-0.2,0-0.4,0.2-0.4,0.4
		c-0.1,0.2,0,0.4,0.1,0.5l2,1.9l-0.5,2.7c0,0.2,0,0.4,0.2,0.5s0.4,0.1,0.6,0l2.5-1.3l2.5,1.3c0.1,0,0.2,0.1,0.2,0.1
		c0.1,0,0.2,0,0.3-0.1c0.2-0.1,0.2-0.3,0.2-0.5l-0.5-2.7l2-1.9c0.1-0.1,0.2-0.3,0.1-0.5C76.8,197.7,76.7,197.5,76.4,197.5z
		 M97.8,197.8c-0.1-0.2-0.2-0.3-0.4-0.4l-2.8-0.4l-1.3-2.5c-0.2-0.4-0.8-0.4-1,0L91,197l-2.8,0.4c-0.2,0-0.4,0.2-0.4,0.4
		c-0.1,0.2,0,0.4,0.1,0.5l2,1.9l-0.5,2.7c0,0.2,0,0.4,0.2,0.5s0.4,0.1,0.6,0l2.5-1.3l2.5,1.3c0.1,0,0.2,0.1,0.2,0.1
		c0.1,0,0.2,0,0.3-0.1c0.2-0.1,0.2-0.3,0.2-0.5l-0.5-2.7l2-1.9C97.8,198.2,97.8,198,97.8,197.8z"/>
</g>
<g>
	<path id="top_x5F_blue" class="st0" d="M164.3,20.3L164.3,20.3l-0.4,0.4l-3.6,3.3c-0.4,0.4-0.4,1,0,1.4l0.4,0.4
		c0.4,0.4,1.1,0.4,1.5,0l2.9-2.7l2.8,2.6c0.4,0.4,1.1,0.4,1.5,0l0.4-0.4c0.4-0.4,0.4-1,0-1.4l-3.5-3.2l-0.1-0.1l-0.4-0.4
		C165.4,19.9,164.7,19.9,164.3,20.3"/>
	<path id="left_x5F_blue" class="st0" d="M175.3,25.7L175.3,25.7l0.4,0.4l3.3,3.6c0.4,0.4,1,0.4,1.4,0l0.4-0.4
		c0.4-0.4,0.4-1.1,0-1.5l-2.7-2.9l2.6-2.8c0.4-0.4,0.4-1.1,0-1.5l-0.4-0.4c-0.4-0.4-1-0.4-1.4,0l-3.2,3.5c0,0-0.1,0-0.1,0.1
		l-0.4,0.4C174.9,24.7,174.9,25.3,175.3,25.7"/>
	<path id="right_x5F_blue" class="st0" d="M190.7,24.3L190.7,24.3l-0.4-0.4l-3.3-3.6c-0.4-0.4-1-0.4-1.4,0l-0.4,0.4
		c-0.4,0.4-0.4,1.1,0,1.5l2.7,2.9l-2.6,2.8c-0.4,0.4-0.4,1.1,0,1.5l0.4,0.4c0.4,0.4,1,0.4,1.4,0l3.2-3.5c0,0,0.1,0,0.1-0.1l0.4-0.4
		C191.1,25.4,191.1,24.7,190.7,24.3"/>
	<path id="bottom_x5F_blue" class="st0" d="M165.7,35.7L165.7,35.7l0.4-0.4l3.6-3.3c0.4-0.4,0.4-1,0-1.4l-0.4-0.4
		c-0.4-0.4-1.1-0.4-1.5,0l-2.9,2.7l-2.8-2.6c-0.4-0.4-1.1-0.4-1.5,0l-0.4,0.4c-0.4,0.4-0.4,1,0,1.4l3.5,3.2l0.1,0.1l0.4,0.4
		C164.7,36.1,165.3,36.1,165.7,35.7"/>
</g>
<g>
	<path id="top_x5F_white" class="st1" d="M164.3,40.3L164.3,40.3l-0.4,0.4l-3.6,3.3c-0.4,0.4-0.4,1,0,1.4l0.4,0.4
		c0.4,0.4,1.1,0.4,1.5,0l2.9-2.7l2.8,2.6c0.4,0.4,1.1,0.4,1.5,0l0.4-0.4c0.4-0.4,0.4-1,0-1.4l-3.5-3.2l-0.1-0.1l-0.4-0.4
		C165.4,39.9,164.7,39.9,164.3,40.3"/>
	<path id="left_x5F_white" class="st1" d="M175.3,45.7L175.3,45.7l0.4,0.4l3.3,3.6c0.4,0.4,1,0.4,1.4,0l0.4-0.4
		c0.4-0.4,0.4-1.1,0-1.5l-2.7-2.9l2.6-2.8c0.4-0.4,0.4-1.1,0-1.5l-0.4-0.4c-0.4-0.4-1-0.4-1.4,0l-3.2,3.5c0,0-0.1,0-0.1,0.1
		l-0.4,0.4C174.9,44.7,174.9,45.3,175.3,45.7"/>
	<path id="right_x5F_white" class="st1" d="M190.7,44.3L190.7,44.3l-0.4-0.4l-3.3-3.6c-0.4-0.4-1-0.4-1.4,0l-0.4,0.4
		c-0.4,0.4-0.4,1.1,0,1.5l2.7,2.9l-2.6,2.8c-0.4,0.4-0.4,1.1,0,1.5l0.4,0.4c0.4,0.4,1,0.4,1.4,0l3.2-3.5c0,0,0.1,0,0.1-0.1l0.4-0.4
		C191.1,45.4,191.1,44.7,190.7,44.3"/>
	<path id="bottom_x5F_white" class="st1" d="M165.7,55.7L165.7,55.7l0.4-0.4l3.6-3.3c0.4-0.4,0.4-1,0-1.4l-0.4-0.4
		c-0.4-0.4-1.1-0.4-1.5,0l-2.9,2.7l-2.8-2.6c-0.4-0.4-1.1-0.4-1.5,0l-0.4,0.4c-0.4,0.4-0.4,1,0,1.4l3.5,3.2l0.1,0.1l0.4,0.4
		C164.7,56.1,165.3,56.1,165.7,55.7"/>
</g>
<g>
	<path id="top_x5F_gray" class="st9" d="M164.3,60.3L164.3,60.3l-0.4,0.4l-3.6,3.3c-0.4,0.4-0.4,1,0,1.4l0.4,0.4
		c0.4,0.4,1.1,0.4,1.5,0l2.9-2.7l2.8,2.6c0.4,0.4,1.1,0.4,1.5,0l0.4-0.4c0.4-0.4,0.4-1,0-1.4l-3.5-3.2l-0.1-0.1l-0.4-0.4
		C165.4,59.9,164.7,59.9,164.3,60.3"/>
	<path id="left_x5F_gray" class="st9" d="M175.3,65.7L175.3,65.7l0.4,0.4l3.3,3.6c0.4,0.4,1,0.4,1.4,0l0.4-0.4
		c0.4-0.4,0.4-1.1,0-1.5l-2.7-2.9l2.6-2.8c0.4-0.4,0.4-1.1,0-1.5l-0.4-0.4c-0.4-0.4-1-0.4-1.4,0l-3.2,3.5c0,0-0.1,0-0.1,0.1
		l-0.4,0.4C174.9,64.7,174.9,65.3,175.3,65.7"/>
	<path id="right_x5F_gray" class="st9" d="M190.7,64.3L190.7,64.3l-0.4-0.4l-3.3-3.6c-0.4-0.4-1-0.4-1.4,0l-0.4,0.4
		c-0.4,0.4-0.4,1.1,0,1.5l2.7,2.9l-2.6,2.8c-0.4,0.4-0.4,1.1,0,1.5l0.4,0.4c0.4,0.4,1,0.4,1.4,0l3.2-3.5l0.1-0.1l0.4-0.4
		C191.1,65.4,191.1,64.7,190.7,64.3"/>
	<path id="bottom_x5F_gray" class="st9" d="M165.7,75.7L165.7,75.7l0.4-0.4l3.6-3.3c0.4-0.4,0.4-1,0-1.4l-0.4-0.4
		c-0.4-0.4-1.1-0.4-1.5,0l-2.9,2.7l-2.8-2.6c-0.4-0.4-1.1-0.4-1.5,0l-0.4,0.4c-0.4,0.4-0.4,1,0,1.4l3.5,3.2l0.1,0.1l0.4,0.4
		C164.7,76.1,165.3,76.1,165.7,75.7"/>
</g>
<g>
	<path id="prev_x5F_big_x5F_2" class="st11" d="M150.5,86L150.5,86l0.6-0.5l5.6-5c0.6-0.6,1.7-0.6,2.3,0l0.6,0.5
		c0.6,0.6,0.6,1.5,0,2.1l-4.4,4l4.4,3.9c0.6,0.6,0.6,1.5,0,2.1l-0.6,0.5c-0.6,0.6-1.7,0.6-2.3,0l-5.4-4.9c-0.1,0-0.1-0.1-0.2-0.1
		l-0.6-0.5C149.8,87.5,149.8,86.6,150.5,86z"/>
	<path id="next_x5F_big_x5F_2" class="st11" d="M174.5,88L174.5,88l-0.6,0.5l-5.6,5c-0.6,0.6-1.7,0.6-2.3,0l-0.6-0.5
		c-0.6-0.6-0.6-1.5,0-2.1l4.4-4l-4.4-3.9c-0.6-0.6-0.6-1.5,0-2.1l0.6-0.5c0.6-0.6,1.7-0.6,2.3,0l5.4,4.9c0.1,0,0.1,0.1,0.2,0.1
		l0.6,0.5C175.2,86.5,175.2,87.4,174.5,88z"/>
</g>
<g>
	<path id="prev_x5F_big_x5F_1" class="st7" d="M150.5,101L150.5,101l0.6-0.5l5.8-5c0.7-0.6,1.7-0.6,2.4,0l0.6,0.5
		c0.7,0.6,0.7,1.5,0,2.1l-4.6,4l4.6,3.9c0.7,0.6,0.7,1.5,0,2.1l-0.6,0.5c-0.7,0.6-1.7,0.6-2.4,0l-5.6-4.9c-0.1,0-0.1-0.1-0.2-0.1
		l-0.6-0.5C149.8,102.5,149.8,101.6,150.5,101z"/>
	<path id="next_x5F_big_x5F_1" class="st7" d="M175.5,103L175.5,103l-0.6,0.5l-5.8,5c-0.7,0.6-1.7,0.6-2.4,0l-0.6-0.5
		c-0.7-0.6-0.7-1.5,0-2.1l4.6-4l-4.6-3.9c-0.7-0.6-0.7-1.5,0-2.1l0.6-0.5c0.7-0.6,1.7-0.6,2.4,0l5.6,4.9c0.1,0,0.1,0.1,0.2,0.1
		l0.6,0.5C176.2,101.5,176.2,102.4,175.5,103z"/>
</g>
<path id="btn_x5F_pen" class="st1" d="M215.9,4.2l-4-4c-0.2-0.2-0.4-0.2-0.5,0L209,2.4l4.6,4.6l2.3-2.3C216,4.5,216,4.3,215.9,4.2z
	 M204.9,11.5c-0.2,0.2-0.5,0.2-0.6,0c-0.2-0.2-0.2-0.5,0-0.6l5.8-5.8l-1.9-1.9l-7.1,7.1c-0.2,0.2-0.3,0.5-0.4,0.7l-0.7,4.2
	c-0.1,0.5,0.3,0.9,0.8,0.8l4.2-0.7c0.3,0,0.5-0.2,0.7-0.4l7.1-7.1l-2.1-2.1L204.9,11.5z M203,14.1l-1.1-1.1l0.2-1.2l2.2,2.2
	L203,14.1z"/>
<path id="btn_x5F_cart" class="st1" d="M229.9,14.7c-0.9,0-1.6,0.7-1.6,1.6s0.7,1.6,1.6,1.6c0.9,0,1.6-0.7,1.6-1.6
	C231.5,15.5,230.8,14.7,229.9,14.7z M236,14.7c-0.9,0-1.6,0.7-1.6,1.6s0.7,1.6,1.6,1.6c0.9,0,1.6-0.7,1.6-1.6
	C237.6,15.5,236.9,14.7,236,14.7z M243.9,3.1c-0.1-0.2-0.4-0.4-0.6-0.4c-0.1,0-0.1,0-0.2,0H227l0,0l0.6,1.9h14.1l0,0l-3,7.1H228
	l-3.5-11.1C224.4,0.3,224,0,223.6,0h-2.7c-0.5,0-0.9,0.4-0.9,0.9s0.4,0.9,0.9,0.9h2.1l3.4,11.1c0.1,0.4,0.5,0.7,0.9,0.7h12
	c0.4,0,0.7-0.2,0.8-0.6l3.8-9C244,3.7,244,3.4,243.9,3.1z"/>
<path class="st12" d="M206.6,22.3l-5.8,6c-0.1,0.1-0.1,0.1-0.2,0.1c0,0.1-0.1,0.1-0.1,0.2c-0.5,0.5-1.3,0.5-1.9,0l-3.3-3.4
	c-0.5-0.5-0.5-1.4,0-1.9s1.4-0.5,1.9,0l2.4,2.5l5.1-5.3c0.5-0.5,1.4-0.5,1.9,0C207.1,20.9,207.1,21.8,206.6,22.3z"/>
<path class="st7" d="M218,20c-4.4,0-8,3.6-8,8s3.6,8,8,8s8-3.6,8-8S222.4,20,218,20z M222.1,26.9L218,31l-0.1,0.1l-0.1,0.1
	c-0.4,0.4-1,0.4-1.3,0l-2.4-2.4c-0.4-0.4-0.4-1,0-1.3s1-0.4,1.3,0l1.7,1.7l3.7-3.7c0.4-0.4,1-0.4,1.3,0
	C222.4,25.9,222.4,26.5,222.1,26.9z"/>
<path class="st11" d="M208.2,38.7c0.6-0.3,0.6-0.5,0-0.8c-1.8-0.9-3.6-1.8-5.4-2.7c-0.4-0.2-1.1-0.2-1.5,0c-1.8,0.8-3.6,1.8-5.4,2.7
	c-0.2,0.1-0.4,0.3-0.4,0.4c0.1,0.2,0.2,0.4,0.4,0.5c1.7,0.9,3.5,1.7,5.2,2.6c0.3,0.1,0.6,0.2,0.9,0.3c0.3-0.1,0.5-0.1,0.6-0.2
	C204.5,40.5,206.3,39.6,208.2,38.7z M200.7,42.3c-1.7-0.7-3.3-1.5-5-2.3c-0.5-0.2-0.7-0.1-0.7,0.4c0,1.9,0,3.9,0,5.8
	c0,0.4,0.4,1.1,0.8,1.3c1.6,0.8,3.3,1.5,4.9,2.3c0.6,0.3,0.8,0,0.8-0.5c0-1,0-2,0-2.9s0-1.9,0-2.8C201.5,43,201.3,42.6,200.7,42.3z
	 M209,40.5c0-0.5-0.2-0.7-0.7-0.5c-1.7,0.8-3.4,1.6-5.1,2.4c-0.5,0.2-0.7,0.6-0.7,1.2c0,0.9,0,1.9,0,2.8c0,1,0,2,0,2.9
	c0,0.7,0.2,0.8,0.8,0.5c1.6-0.7,3.2-1.4,4.8-2.2c0.4-0.2,0.9-0.8,0.9-1.2C209,44.4,209,42.4,209,40.5z"/>
<path class="st7" d="M208.2,58.7c0.6-0.3,0.6-0.5,0-0.8c-1.8-0.9-3.6-1.8-5.4-2.7c-0.4-0.2-1.1-0.2-1.5,0c-1.8,0.8-3.6,1.8-5.4,2.7
	c-0.2,0.1-0.4,0.3-0.4,0.4c0.1,0.2,0.2,0.4,0.4,0.5c1.7,0.9,3.5,1.7,5.2,2.6c0.3,0.1,0.6,0.2,0.9,0.3c0.3-0.1,0.5-0.1,0.6-0.2
	C204.5,60.5,206.3,59.6,208.2,58.7z M200.7,62.3c-1.7-0.7-3.3-1.5-5-2.3c-0.5-0.2-0.7-0.1-0.7,0.4c0,1.9,0,3.9,0,5.8
	c0,0.4,0.4,1.1,0.8,1.3c1.6,0.8,3.3,1.5,4.9,2.3c0.6,0.3,0.8,0,0.8-0.5c0-1,0-2,0-2.9s0-1.9,0-2.8C201.5,63,201.3,62.6,200.7,62.3z
	 M209,60.5c0-0.5-0.2-0.7-0.7-0.5c-1.7,0.8-3.4,1.6-5.1,2.4c-0.5,0.2-0.7,0.6-0.7,1.2c0,0.9,0,1.9,0,2.8c0,1,0,2,0,2.9
	c0,0.7,0.2,0.8,0.8,0.5c1.6-0.7,3.2-1.4,4.8-2.2c0.4-0.2,0.9-0.8,0.9-1.2C209,64.4,209,62.4,209,60.5z"/>
<path class="st11" d="M214.1,48.8c-1,0-1.7,0.7-1.7,1.6c0,0.9,0.8,1.6,1.7,1.6c1,0,1.7-0.7,1.7-1.6S215,48.8,214.1,48.8z
	 M225.4,48.8c-1,0-1.7,0.7-1.7,1.6c0,0.9,0.8,1.6,1.7,1.6s1.7-0.7,1.7-1.6S226.4,48.8,225.4,48.8z M228.2,40.8
	c0-0.7-0.5-0.8-0.7-0.8h-8.6v6.9h9.3V40.8L228.2,40.8z M228.5,48.6h-0.3v-1h-10.3V40c0,0-0.7,0-3.6,0s-2.6,4.8-2.6,4.8s0,0-0.1,0
	c-0.2,0-0.7,0.2-0.8,0.8v2.9h-0.5c-0.3,0-0.5,0.2-0.5,0.5c0,0.2,0.2,0.5,0.5,0.5h1.4c0.4-0.7,1.2-1.3,2.1-1.3c0.9,0,1.8,0.5,2.1,1.3
	h7.1c0.4-0.7,1.2-1.3,2.1-1.3s1.8,0.5,2.1,1.3h1c0.3,0,0.5-0.2,0.5-0.5C229,48.8,228.8,48.6,228.5,48.6z M217.1,44.8h-4.4
	c0-2,0.5-3,0.9-3.5c0.5-0.5,1.2-0.5,1.2-0.5l0,0h2.3V44.8L217.1,44.8z"/>
<path class="st7" d="M213.8,63.8c-0.9,0-1.6,0.7-1.6,1.6s0.7,1.6,1.6,1.6c0.9,0,1.6-0.7,1.6-1.6C215.5,64.5,214.8,63.8,213.8,63.8z
	 M224.6,63.8c-0.9,0-1.6,0.7-1.6,1.6s0.7,1.6,1.6,1.6c0.9,0,1.6-0.7,1.6-1.6S225.5,63.8,224.6,63.8z M227.3,55.8
	c0-0.7-0.4-0.8-0.7-0.8h-8.2v6.9h8.8L227.3,55.8L227.3,55.8z M227.6,63.6h-0.3v-1h-9.8V55c0,0-0.6,0-3.4,0c-2.7,0-2.4,4.8-2.4,4.8
	s0,0-0.1,0c-0.2,0-0.7,0.2-0.7,0.8v2.9h-0.5c-0.2,0-0.4,0.2-0.4,0.5c0,0.2,0.2,0.5,0.4,0.5h1.4c0.4-0.7,1.1-1.3,2-1.3s1.7,0.5,2,1.3
	h6.7c0.4-0.7,1.1-1.3,2-1.3s1.7,0.5,2,1.3h0.9c0.2,0,0.4-0.2,0.4-0.5C228,63.8,227.8,63.6,227.6,63.6z M216.8,59.8h-4.2
	c0-2,0.5-3,0.9-3.5c0.5-0.5,1.1-0.5,1.1-0.5l0,0h2.1L216.8,59.8L216.8,59.8z"/>
<path class="st9" d="M197.1,77.9c-3.9-3.9-10.2-3.9-14.1,0c-3.9,3.9-3.9,10.2,0,14.1s10.2,3.9,14.1,0C201,88.2,201,81.8,197.1,77.9z
	 M193.8,89.8c-0.3,0.3-0.8,0.3-1.1,0l-2.6-2.6l-2.6,2.6c-0.3,0.3-0.8,0.3-1.1,0l-1.2-1.2c-0.3-0.3-0.3-0.8,0-1.1l2.6-2.6l-2.6-2.6
	c-0.3-0.3-0.3-0.8,0-1.1l1.2-1.2c0.3-0.3,0.8-0.3,1.1,0l2.6,2.6l2.6-2.6c0.3-0.3,0.8-0.3,1.1,0l1.2,1.2c0.3,0.3,0.3,0.8,0,1.1
	l-2.6,2.6l2.6,2.6c0.3,0.3,0.3,0.8,0,1.1L193.8,89.8z"/>
<path class="st12" d="M222.1,77.9c-3.9-3.9-10.2-3.9-14.1,0c-3.9,3.9-3.9,10.2,0,14.1s10.2,3.9,14.1,0C226,88.2,226,81.8,222.1,77.9
	z M218.8,89.8c-0.3,0.3-0.8,0.3-1.1,0l-2.6-2.6l-2.6,2.6c-0.3,0.3-0.8,0.3-1.1,0l-1.2-1.2c-0.3-0.3-0.3-0.8,0-1.1l2.6-2.6l-2.6-2.6
	c-0.3-0.3-0.3-0.8,0-1.1l1.2-1.2c0.3-0.3,0.8-0.3,1.1,0l2.6,2.6l2.6-2.6c0.3-0.3,0.8-0.3,1.1,0l1.2,1.2c0.3,0.3,0.3,0.8,0,1.1
	l-2.6,2.6l2.6,2.6c0.3,0.3,0.3,0.8,0,1.1L218.8,89.8z"/>
<g id="_x2B_">
	<path class="st0" d="M92.7,110h10.6c1.5,0,2.7,1.2,2.7,2.7v10.6c0,1.5-1.2,2.7-2.7,2.7H92.7c-1.5,0-2.7-1.2-2.7-2.7v-10.6
		C90,111.2,91.2,110,92.7,110z"/>
	<polygon class="st1" points="103,117 99,117 99,113 97,113 97,117 93,117 93,119 97,119 97,123 99,123 99,119 103,119 	"/>
</g>
<g id="_x2B__1_">
	<path class="st0" d="M112.7,110h10.6c1.5,0,2.7,1.2,2.7,2.7v10.6c0,1.5-1.2,2.7-2.7,2.7h-10.6c-1.5,0-2.7-1.2-2.7-2.7v-10.6
		C110,111.2,111.2,110,112.7,110z"/>
	<rect x="113" y="117" class="st1" width="10" height="2"/>
</g>
<g>
	<rect x="90" y="130" class="st13" width="4" height="4"/>
	<rect x="95" y="130" class="st1" width="4" height="4"/>
	<rect x="100" y="130" class="st14" width="4" height="4"/>
	<rect x="100" y="135" class="st1" width="4" height="4"/>
	<rect x="95" y="135" class="st14" width="4" height="4"/>
	<rect x="90" y="135" class="st15" width="4" height="4"/>
	<rect x="90" y="140" class="st16" width="4" height="4"/>
	<rect x="95" y="140" class="st17" width="4" height="4"/>
	<rect x="100" y="140" class="st15" width="4" height="4"/>
</g>
<path class="st18" d="M13.8,227H3.2c-1.8,0-3.2-1.4-3.2-3.2v-10.6c0-1.8,1.4-3.2,3.2-3.2h10.6c1.8,0,3.2,1.4,3.2,3.2v10.6
	C17,225.6,15.6,227,13.8,227z M3.2,211C2,211,1,212,1,213.2v10.6c0,1.2,1,2.2,2.2,2.2h10.6c1.2,0,2.2-1,2.2-2.2v-10.6
	c0-1.2-1-2.2-2.2-2.2H3.2z"/>
<path class="st18" d="M33.8,210H23.2c-1.8,0-3.2,1.4-3.2,3.2v10.6c0,1.8,1.4,3.2,3.2,3.2h10.6c1.8,0,3.2-1.4,3.2-3.2v-10.6
	C37,211.4,35.6,210,33.8,210z M36,223.8c0,1.2-1,2.2-2.2,2.2H23.2c-1.2,0-2.2-1-2.2-2.2v-10.6c0-1.2,1-2.2,2.2-2.2h10.6
	c1.2,0,2.2,1,2.2,2.2C36,213.2,36,223.8,36,223.8z M32.4,214.5l-5.3,5.3l-2.5-2.5c-0.5-0.5-1.4-0.5-1.9,0s-0.5,1.4,0,1.9l3.4,3.4
	c0.5,0.5,1.4,0.5,1.9,0c0-0.1,0.1-0.1,0.1-0.2c0.1,0,0.1,0,0.2-0.1l6-6c0.6-0.5,0.6-1.4,0-1.8C33.8,214,32.9,214,32.4,214.5z"/>
<path class="st1" d="M324,0c-7.7,0-14,6.3-14,14s6.3,14,14,14s14-6.3,14-14S331.7,0,324,0 M331.4,13l-3.1,3l0.7,4.3
	c0.1,0.3-0.1,0.6-0.3,0.8c-0.1,0.1-0.3,0.2-0.5,0.2c-0.1,0-0.3,0-0.4-0.1l-3.8-2l-3.8,2c-0.3,0.1-0.6,0.1-0.9-0.1s-0.4-0.5-0.3-0.8
	l0.7-4.3l-3.1-3c-0.2-0.2-0.3-0.5-0.2-0.8c0.1-0.3,0.4-0.5,0.7-0.6l4.3-0.6l1.9-3.9c0.3-0.6,1.2-0.6,1.5,0l1.9,3.9l4.3,0.6
	c0.3,0,0.6,0.3,0.7,0.6C331.7,12.5,331.6,12.8,331.4,13"/>
<path class="st1" d="M273.9,4.1c-5.5-5.5-14.3-5.5-19.8,0s-5.5,14.3,0,19.8c5.5,5.5,14.3,5.5,19.8,0S279.4,9.6,273.9,4.1
	 M269.3,20.8c-0.4,0.4-1.1,0.4-1.5,0l-3.6-3.6l-3.6,3.6c-0.4,0.4-1.1,0.4-1.5,0l-1.6-1.6c-0.4-0.4-0.4-1.1,0-1.5L261,14l-3.6-3.6
	c-0.4-0.4-0.4-1.1,0-1.5l1.6-1.6c0.4-0.4,1.1-0.4,1.5,0l3.6,3.6l3.6-3.6c0.4-0.4,1.1-0.4,1.5,0l1.6,1.6c0.4,0.4,0.4,1.1,0,1.5
	l-3.6,3.6l3.6,3.6c0.4,0.4,0.4,1.1,0,1.5L269.3,20.8z"/>
<path class="st1" d="M294,0c-7.7,0-14,6.3-14,14s6.3,14,14,14s14-6.3,14-14S301.7,0,294,0 M301.1,12l-7.2,7.2
	c-0.1,0.1-0.1,0.1-0.2,0.2s-0.1,0.1-0.2,0.2c-0.6,0.6-1.7,0.6-2.3,0l-4.1-4.1c-0.6-0.6-0.6-1.7,0-2.3s1.7-0.6,2.3,0l3,3l6.4-6.4
	c0.6-0.6,1.7-0.6,2.3,0C301.8,10.3,301.8,11.4,301.1,12"/>
<path class="st1" d="M250.3,33.6l-10.2,10.2c-0.1,0.1-0.1,0.1-0.3,0.3c-0.1,0.1-0.1,0.1-0.3,0.3c-0.8,0.8-2.4,0.8-3.2,0l-5.7-5.7
	c-0.8-0.8-0.8-2.4,0-3.2s2.4-0.8,3.2,0l4.2,4.2l9.1-9.1c0.8-0.8,2.4-0.8,3.2,0C251.2,31.2,251.2,32.8,250.3,33.6"/>
<path class="st9" d="M193.7,115.6c-0.5,0.5-1.2,0.5-1.7,0l-4.1-4.1l-4.1,4.1c-0.5,0.5-1.2,0.5-1.7,0l-1.9-1.9
	c-0.5-0.5-0.5-1.2,0-1.7l4.1-4.1l-4.1-4.1c-0.5-0.5-0.5-1.2,0-1.7l1.9-1.9c0.5-0.5,1.2-0.5,1.7,0l4.1,4.1l4.1-4.1
	c0.5-0.5,1.2-0.5,1.7,0l1.9,1.9c0.5,0.5,0.5,1.2,0,1.7l-4.1,4.1l4.1,4.1c0.5,0.5,0.5,1.2,0,1.7L193.7,115.6z"/>
<path class="st12" d="M213.7,115.6c-0.5,0.5-1.2,0.5-1.7,0l-4.1-4.1l-4.1,4.1c-0.5,0.5-1.2,0.5-1.7,0l-1.9-1.9
	c-0.5-0.5-0.5-1.2,0-1.7l4.1-4.1l-4.1-4.1c-0.5-0.5-0.5-1.2,0-1.7l1.9-1.9c0.5-0.5,1.2-0.5,1.7,0l4.1,4.1l4.1-4.1
	c0.5-0.5,1.2-0.5,1.7,0l1.9,1.9c0.5,0.5,0.5,1.2,0,1.7l-4.1,4.1l4.1,4.1c0.5,0.5,0.5,1.2,0,1.7L213.7,115.6z"/>
<path class="st11" d="M270.9,33.3c-1.1,0-1.7,1.2-1.9,1.2c-0.1,0-0.8-1.2-1.9-1.2s-2,0.9-2,2c0,0.6,0.2,1.1,0.4,1.5
	c0.6,0.8,3,2.8,3.5,2.8s2.9-2,3.5-2.8c0.3-0.4,0.5-0.9,0.4-1.5C272.9,34.2,272,33.3,270.9,33.3z M276.9,30H261
	c-0.6,0-1.1,0.5-1.1,1.1v11.6c0,0.6,0.5,1.1,1.1,1.1c0,0,4.5,0,6.2,0c0.1,0,0.1,0,0.1,0.1c0,0.3,0,1.1,0,1.1c0,0.1-0.1,0.1-0.1,0.1
	h-2.6c-0.1,0-0.1,0.1-0.1,0.1v0.6c0,0.1,0.1,0.1,0.1,0.1h8.5c0.1,0,0.1-0.1,0.1-0.1v-0.6c0-0.1-0.1-0.1-0.1-0.1h-2.6
	c-0.1,0-0.1-0.1-0.1-0.1s0-0.9,0-1.1c0-0.1,0-0.1,0.2-0.1c1.7,0,6.2,0,6.2,0c0.6,0,1.1-0.5,1.1-1.1V31.1C278,30.5,277.5,30,276.9,30
	z M269,42.9c-0.3,0-0.5-0.2-0.5-0.5s0.2-0.5,0.5-0.5s0.5,0.2,0.5,0.5S269.3,42.9,269,42.9z M276.9,40.7c0,0.2-0.2,0.4-0.4,0.4h-15
	c-0.2,0-0.4-0.2-0.4-0.4v-9.1c0-0.2,0.2-0.4,0.4-0.4h15c0.2,0,0.4,0.2,0.4,0.4V40.7z"/>
<path class="st11" d="M269,50c-5,0-9,4-9,9s4,9,9,9s9-4,9-9S274,50,269,50z M269,52.1c0.9,0,1.7,0.7,1.7,1.7s-0.7,1.7-1.7,1.7
	c-0.9,0-1.7-0.7-1.7-1.7S268.1,52.1,269,52.1z M271.2,65.6c0,0.2-0.1,0.3-0.3,0.3h-3.8c-0.2,0-0.3-0.1-0.3-0.3v-1.3
	c0-0.2,0.1-0.3,0.3-0.3h0.7v-6.3H267c-0.2,0-0.3-0.1-0.3-0.3v-0.9c0-0.2,0.1-0.3,0.3-0.3h2.8c0.2,0,0.3,0.1,0.3,0.3V64h0.7
	c0.2,0,0.3,0.1,0.3,0.3L271.2,65.6L271.2,65.6z"/>
<path class="st11" d="M278,76.8c0,5.1-6.2,10.8-6.5,11c-0.1,0.1-0.3,0.2-0.5,0.2s-0.3-0.1-0.5-0.2c0,0-0.2-0.2-0.4-0.4
	c1.4-1.4,6.1-6.3,6.1-10.7c0-3.4-2.7-6.3-6.1-6.7c0.3,0,0.6-0.1,0.9-0.1C274.9,70,278,73,278,76.8z M274.9,76.8
	c0,5.1-6.2,10.8-6.5,11c-0.1,0.1-0.3,0.2-0.5,0.2s-0.3-0.1-0.5-0.2c-0.3-0.2-6.5-5.6-6.5-11c0-3.7,3.1-6.8,7-6.8
	S274.9,73,274.9,76.8z M271.3,76.8c0-1.8-1.5-3.2-3.3-3.2s-3.3,1.4-3.3,3.2s1.5,3.2,3.3,3.2S271.3,78.6,271.3,76.8z"/>
<path class="st11" d="M276,94.4c0.7-0.3,0.7-0.6,0-1c-2.2-1.1-4.3-2.2-6.6-3.2c-0.5-0.2-1.3-0.2-1.8,0c-2.2,1-4.4,2.1-6.6,3.2
	c-0.2,0.1-0.5,0.4-0.5,0.5c0.1,0.2,0.3,0.4,0.5,0.6c2.1,1.1,4.2,2.1,6.3,3.1c0.4,0.2,0.8,0.3,1.1,0.4c0.3-0.1,0.6-0.1,0.8-0.2
	C271.5,96.6,273.7,95.5,276,94.4z M267,98.8c-2-0.9-4-1.8-6.1-2.7c-0.6-0.3-0.9-0.2-0.9,0.5c0,2.3-0.1,4.7,0,7c0,0.5,0.5,1.3,1,1.5
	c1.9,1,4,1.8,5.9,2.8c0.7,0.3,0.9,0.1,0.9-0.6c0-1.2,0-2.4,0-3.5s0-2.2,0-3.3C267.9,99.6,267.7,99.1,267,98.8z M277,96.6
	c0-0.5-0.2-0.8-0.8-0.5c-2.1,1-4.2,1.9-6.2,2.8c-0.6,0.3-0.9,0.7-0.8,1.4c0,1.1,0,2.2,0,3.3c0,1.2,0,2.4,0,3.5c0,0.9,0.2,1,1,0.7
	c1.9-0.9,3.9-1.7,5.8-2.7c0.5-0.3,1-1,1.1-1.5C277,101.3,277,98.9,277,96.6z"/>
<path class="st11" d="M289,30c-5,0-9,4-9,9s4,9,9,9s9-4,9-9S294,30,289,30 M293.7,38.4l-2,1.9l0.5,2.7c0,0.2,0,0.4-0.2,0.5
	c-0.1,0.1-0.2,0.1-0.3,0.1c-0.1,0-0.2,0-0.2-0.1l-2.5-1.3l-2.5,1.3c-0.2,0.1-0.4,0.1-0.6,0s-0.2-0.3-0.2-0.5l0.5-2.7l-2-1.9
	c-0.1-0.1-0.2-0.3-0.1-0.5s0.2-0.3,0.4-0.4l2.7-0.4l1.2-2.5c0.2-0.4,0.8-0.4,0.9,0l1.2,2.5l2.7,0.4c0.2,0,0.4,0.2,0.4,0.4
	C293.9,38,293.9,38.2,293.7,38.4"/>
<path class="st11" d="M295.7,50h-11.4h-1c-0.7,0-1.3,0.6-1.3,1.2v1v14.5c0,0.7,0.6,1.2,1.3,1.2h11.4h1c0.7,0,1.3-0.6,1.3-1.2v-1
	V51.2l0,0C297,50.6,296.4,50,295.7,50z M294.4,58.4l-2.1,1.9l0.5,2.7c0,0.2,0,0.4-0.2,0.5c-0.1,0.1-0.2,0.1-0.3,0.1
	c-0.1,0-0.2,0-0.3-0.1l-2.6-1.3l-2.6,1.3c-0.2,0.1-0.4,0.1-0.6,0s-0.3-0.3-0.2-0.5l0.5-2.7l-2.1-1.9c-0.1-0.1-0.2-0.3-0.1-0.5
	s0.2-0.3,0.4-0.4l2.9-0.4l1.3-2.5c0.2-0.4,0.8-0.4,1,0l1.3,2.5l2.9,0.4c0.2,0,0.4,0.2,0.4,0.4C294.7,58,294.6,58.2,294.4,58.4z"/>
<path class="st11" d="M288.3,80.4l-0.4,1.3c0,0.1,0,0.3,0.1,0.4l0.4,0.3c0.1,0.1,0.3,0.1,0.5,0l1-0.9c0.1-0.1,0.1-0.3,0-0.3
	l-1.2-0.8C288.5,80.2,288.4,80.3,288.3,80.4z M296.9,70.9l-1.2-0.8c-0.1-0.1-0.3-0.1-0.4,0.1l-0.4,0.6c-0.1,0.1-0.1,0.3,0.1,0.4
	l1.2,0.8c0.1,0.1,0.3,0.1,0.4-0.1l0.4-0.6C297,71.1,297,70.9,296.9,70.9z M294.7,71.6c-0.1-0.1-0.3-0.1-0.4,0.1l-5.3,7.8
	c-0.1,0.1-0.1,0.3,0.1,0.4l1.1,0.8c0.1,0.1,0.3,0.1,0.4-0.1l5.3-7.8c0.1-0.1,0.1-0.3-0.1-0.4L294.7,71.6z M291.4,80.5L291.4,80.5
	h0.6c0.3,0,0.6,0.2,0.6,0.5s-0.3,0.5-0.6,0.5h-1.5l0,0h-0.1c0,0.1-0.1,0.2-0.2,0.3l-0.9,0.7c-0.2,0.1-0.4,0.2-0.6,0.2
	s-0.4-0.1-0.6-0.2l-0.2-0.1c-0.3-0.2-0.5-0.6-0.4-0.9h-4c-0.3,0-0.6-0.2-0.6-0.5s0.3-0.5,0.6-0.5h4.3l0.1-0.3
	c0.1-0.2,0.2-0.4,0.4-0.5c0-0.2,0-0.4,0.2-0.5l0.3-0.4h-5.3c-0.3,0-0.6-0.2-0.6-0.5s0.3-0.5,0.6-0.5h6l1.2-1.7h-7.2
	c-0.3,0-0.6-0.2-0.6-0.5s0.3-0.5,0.6-0.5h7.9l2.5-3.6c-0.2-0.1-0.4-0.2-0.6-0.2h-11c-0.6,0-1.2,0.5-1.2,1.2v14.3
	c0,0.6,0.5,1.2,1.2,1.2h11c0.6,0,1.2-0.5,1.2-1.2V76L291.4,80.5L291.4,80.5z M292,84.2h-8.6c-0.3,0-0.6-0.2-0.6-0.5s0.3-0.5,0.6-0.5
	h8.6c0.3,0,0.6,0.2,0.6,0.5S292.3,84.2,292,84.2z"/>
<path class="st11" d="M287.4,104.6c-0.7,0-1.2,0.5-1.2,1.2s0.5,1.2,1.2,1.2s1.2-0.5,1.2-1.2S288.1,104.6,287.4,104.6z M292,104.6
	c-0.7,0-1.2,0.5-1.2,1.2s0.5,1.2,1.2,1.2s1.2-0.5,1.2-1.2S292.6,104.6,292,104.6z M297.6,95.6c-0.4-0.2-0.8,0-0.9,0.3l-2.7,6.4h-8
	l-2.6-8.3c-0.1-0.3-0.4-0.5-0.7-0.5h-2c-0.4,0-0.7,0.3-0.7,0.7c0,0.4,0.3,0.7,0.7,0.7h1.5l2.6,8.3c0.1,0.3,0.4,0.5,0.7,0.5h9
	c0.3,0,0.5-0.2,0.6-0.4l1.4-3.3l1.5-3.5C298.1,96.1,297.9,95.7,297.6,95.6z M287.9,96l-0.4,2.3c0,0.2,0,0.3,0.2,0.4
	c0.1,0.1,0.3,0.1,0.5,0l2-1.1l2,1.1c0.1,0,0.1,0.1,0.2,0.1s0.2,0,0.3-0.1c0.1-0.1,0.2-0.3,0.2-0.4l-0.4-2.3l1.6-1.6
	c0.1-0.1,0.2-0.3,0.1-0.4c-0.1-0.2-0.2-0.3-0.4-0.3l-2.3-0.3l-1-2.1c-0.1-0.3-0.6-0.3-0.8,0l-1,2.1l-2.3,0.3c-0.2,0-0.3,0.1-0.4,0.3
	c-0.1,0.2,0,0.3,0.1,0.4L287.9,96z"/>
<g>
	
		<linearGradient id="SVGID_1_" gradientUnits="userSpaceOnUse" x1="233.525" y1="628.475" x2="250.4956" y2="611.5044" gradientTransform="matrix(1 0 0 -1 0 682)">
		<stop  offset="0" style="stop-color:#DD272D"/>
		<stop  offset="0.5153" style="stop-color:#CA2429"/>
		<stop  offset="1" style="stop-color:#B22025"/>
	</linearGradient>
	<path class="st19" d="M242,50c-6.6,0-12,5.4-12,12s5.4,12,12,12s12-5.4,12-12S248.6,50,242,50z"/>
	<path class="st1" d="M243.3,65.7c-1,0-2-0.6-2.3-1.2c0,0-0.5,2.2-0.7,2.6c-0.4,1.5-1.6,3-1.7,3.1c-0.1,0.1-0.2,0.1-0.2-0.1
		s-0.3-2.1,0-3.6c0.2-0.8,1.2-5.2,1.2-5.2s-0.3-0.6-0.3-1.5c0-1.4,0.8-2.4,1.8-2.4c0.9,0,1.3,0.6,1.3,1.4c0,0.9-0.6,2.2-0.8,3.4
		c-0.2,1,0.5,1.8,1.5,1.8c1.8,0,3-2.3,3-5c0-2.1-1.4-3.6-3.9-3.6c-2.9,0-4.7,2.1-4.7,4.5c0,0.8,0.2,1.4,0.6,1.9
		c0.2,0.2,0.2,0.3,0.1,0.5c0,0.2-0.1,0.6-0.2,0.8c-0.1,0.2-0.3,0.3-0.5,0.2c-1.3-0.5-1.9-2-1.9-3.6c0-2.7,2.3-5.9,6.8-5.9
		c3.6,0,6,2.6,6,5.4C248.4,62.9,246.3,65.7,243.3,65.7z"/>
</g>
<path class="st1" d="M142.4,130h-31.2h-2.6c-2,0-3.6,1.5-3.6,3.4v2.7v39.5c0,1.9,1.6,3.4,3.6,3.4h31.2h2.6c2,0,3.6-1.5,3.6-3.4v-2.7
	v-39.5l0,0C146,131.5,144.4,130,142.4,130z M139,152.7l-5.7,5.2l1.3,7.4c0.1,0.5-0.1,1.1-0.6,1.4c-0.3,0.2-0.6,0.3-0.9,0.3
	c-0.2,0-0.5-0.1-0.7-0.2l-7-3.5l-7,3.5c-0.5,0.3-1.1,0.2-1.6-0.1s-0.7-0.9-0.6-1.4l1.3-7.4l-5.7-5.2c-0.4-0.4-0.6-0.9-0.4-1.5
	c0.2-0.5,0.6-0.9,1.2-1l7.8-1.1l3.5-6.7c0.5-1,2.2-1,2.7,0l3.5,6.7l7.8,1.1c0.6,0.1,1,0.5,1.2,1C139.6,151.8,139.4,152.4,139,152.7z
	"/>
<path class="st1" d="M234,151.2l-3.7-0.5l-1.7-3.4c-0.2-0.5-1-0.5-1.3,0l-1.7,3.4l-3.7,0.5c-0.3,0-0.5,0.2-0.6,0.5s0,0.5,0.2,0.7
	l2.7,2.6l-0.6,3.7c0,0.3,0.1,0.5,0.3,0.7s0.5,0.2,0.8,0.1l3.3-1.7l3.3,1.7c0.1,0.1,0.2,0.1,0.3,0.1s0.3,0,0.4-0.1
	c0.2-0.2,0.3-0.4,0.3-0.7l-0.6-3.7l2.7-2.6c0.2-0.2,0.3-0.5,0.2-0.7C234.4,151.4,234.3,151.2,234,151.2z M252.8,144.8
	c-1.4-3-3.4-5.6-5.9-7.7s-5.4-3.9-8.7-5.2s-6.9-1.9-10.7-1.9s-7.3,0.6-10.7,1.9c-3.4,1.3-6.3,3-8.7,5.2s-4.5,4.8-5.9,7.7
	c-1.4,3-2.2,6.1-2.2,9.4c0,3.7,0.9,7.1,2.7,10.5c1.8,3.3,4.3,6.1,7.5,8.4l-5.3,9.7c-0.3,0.6-0.2,1.2,0.3,1.7c0.2,0.2,0.6,0.4,1,0.4
	c0.2,0,0.5-0.1,0.7-0.2l12.4-7.2c2.7,0.7,5.4,1.1,8.1,1.1c3.8,0,7.3-0.6,10.7-1.9c3.4-1.3,6.3-3,8.7-5.2s4.5-4.8,5.9-7.7
	c1.4-3,2.2-6.2,2.2-9.4C255,150.9,254.3,147.8,252.8,144.8z M228,165.3c-6.7,0-12.1-5.5-12.1-12.1s5.5-12.1,12.1-12.1
	s12.1,5.5,12.1,12.1C240.1,160,234.6,165.3,228,165.3z"/>
<path class="st1" d="M191.4,142c1.8-0.9,1.7-1.8-0.1-2.7c-5.7-3-11.2-6-17-8.8c-1.3-0.6-3.3-0.6-4.7,0c-5.8,2.7-11.3,5.8-17,8.7
	c-0.5,0.3-1.3,1-1.2,1.3c0.2,0.6,0.8,1.2,1.4,1.5c5.5,2.9,10.8,5.7,16.3,8.5c0.9,0.5,2,0.8,2.8,1.1c0.8-0.3,1.5-0.4,2.1-0.7
	C179.7,148,185.6,145,191.4,142z M168,154c-5.3-2.4-10.5-4.9-15.7-7.5c-1.5-0.7-2.3-0.5-2.3,1.4c0,6.3-0.1,12.7,0.1,19.1
	c0.1,1.4,1.3,3.4,2.5,4.1c5.1,2.7,10.2,5,15.4,7.5c1.8,0.9,2.4,0.2,2.4-1.7c0-3.2,0-6.4,0-9.6c0-3,0-6.1,0-9.1
	C170.5,156.2,169.8,154.8,168,154z M193.9,147.9c0-1.5-0.6-2.2-2.2-1.5c-5.4,2.6-10.7,5.1-16.2,7.7c-1.6,0.8-2.2,2-2.2,3.8
	c0.1,3,0,6.1,0,9.1c0,3.2,0,6.4,0,9.6c0,2.4,0.5,2.8,2.6,1.8c5.1-2.4,10.1-4.7,15-7.3c1.3-0.7,2.7-2.6,2.8-4
	C194.1,160.7,193.9,154.3,193.9,147.9z"/>
<g id="Add_To_Wishlist">
	<path class="st7" d="M294.9,112h-6.8c0,0.2,0,0.3,0,0.5c0,2.5-2.1,4.5-4.6,4.5c-0.2,0-0.3,0-0.5,0v9.9c0,0.6,0.5,1.1,1.1,1.1h9.9
		h0.8c0.6,0,1.1-0.5,1.1-1.1V126v-12.9l0,0C296,112.5,295.5,112,294.9,112z M293.9,119.4l-1.8,1.7l0.4,2.4c0,0.2,0,0.4-0.2,0.5
		c-0.1,0.1-0.2,0.1-0.3,0.1c-0.1,0-0.2,0-0.2-0.1l-2.2-1.1l-2.2,1.1c-0.2,0.1-0.4,0.1-0.5,0s-0.2-0.3-0.2-0.5l0.4-2.4l-1.8-1.7
		c-0.1-0.1-0.2-0.3-0.1-0.5s0.2-0.3,0.4-0.3l2.5-0.4l1.1-2.2c0.2-0.3,0.7-0.3,0.9,0l1.1,2.2l2.5,0.4c0.2,0,0.3,0.2,0.4,0.3
		C294.1,119.1,294.1,119.3,293.9,119.4z"/>
	<path class="st7" d="M283.5,109c-2,0-3.5,1.6-3.5,3.5s1.6,3.5,3.5,3.5c2,0,3.5-1.6,3.5-3.5C287.1,110.6,285.5,109,283.5,109z
		 M285.7,112.7c0,0.1-0.1,0.3-0.3,0.3h-1.3v1.3c0,0.1-0.1,0.3-0.3,0.3h-0.6c-0.1,0-0.3-0.1-0.3-0.3V113h-1.3c-0.1,0-0.3-0.1-0.3-0.3
		v-0.6c0-0.1,0.1-0.3,0.3-0.3h1.3v-1.3c0-0.1,0.1-0.3,0.3-0.3h0.6c0.1,0,0.3,0.1,0.3,0.3v1.3h1.3c0.1,0,0.3,0.1,0.3,0.3V112.7z"/>
</g>
<g id="Layer_3">
	<path class="st1" d="M276,130c-8.8,0-16,7.2-16,16s7.2,16,16,16s16-7.2,16-16S284.8,130,276,130z"/>
	<path class="st12" d="M276,130c-8.8,0-16,7.2-16,16s7.2,16,16,16s16-7.2,16-16S284.8,130,276,130z M285.7,147.2
		c0,0.7-0.5,1.2-1.2,1.2h-5.9v5.9c0,0.7-0.5,1.2-1.2,1.2h-2.7c-0.7,0-1.2-0.5-1.2-1.2v-5.9h-5.9c-0.7,0-1.2-0.5-1.2-1.2v-2.6
		c0-0.7,0.5-1.2,1.2-1.2h5.9v-5.9c0-0.7,0.5-1.2,1.2-1.2h2.7c0.7,0,1.2,0.5,1.2,1.2v5.9h5.9c0.7,0,1.2,0.5,1.2,1.2V147.2z"/>
</g>
<g id="Facebook_3_">
	<rect y="230" class="st20" width="16" height="16"/>
	<path class="st1" d="M11.9,234.9H14v-2.6h-2.1c-1.7,0-3.2,1.5-3.2,3.4v1.3H6.6v2.6h2.1v6.3h2.6v-6.3H14V237h-2.6v-1.3
		C11.4,235.2,11.6,234.9,11.9,234.9z"/>
</g>
<g id="Google_x2B__2_">
	<rect x="40" y="230" class="st21" width="16" height="16"/>
	<g>
		<path class="st1" d="M41.5,237.4c0-2.1,2-4,4.1-3.9c1,0,2,0.4,2.8,1c-0.3,0.4-0.7,0.7-1,1.1c-0.9-0.6-2.3-0.8-3.2-0.1
			c-1.3,0.9-1.4,3.1-0.1,4.1c1.3,1.1,3.6,0.6,4-1.2c-0.8,0-1.6,0-2.4,0c0-0.5,0-0.9,0-1.4c1.3,0,2.6,0,3.9,0
			c0.1,1.1-0.1,2.3-0.7,3.2c-1,1.4-3.1,1.9-4.7,1.2C42.5,240.9,41.4,239.2,41.5,237.4z"/>
		<path class="st1" d="M52.1,235.9c0.4,0,0.8,0,1.2,0c0,0.4,0,0.8,0,1.2c0.4,0,0.8,0,1.2,0c0,0.4,0,0.8,0,1.2c-0.4,0-0.8,0-1.2,0
			c0,0.4,0,0.8,0,1.2c-0.4,0-0.8,0-1.2,0c0-0.4,0-0.8,0-1.2c-0.4,0-0.8,0-1.2,0c0-0.4,0-0.8,0-1.2c0.4,0,0.8,0,1.2,0
			C52.1,236.7,52.1,236.3,52.1,235.9z"/>
	</g>
</g>
<g id="Twitter_3_">
	<rect x="20" y="230" class="st22" width="16" height="16"/>
	<path class="st1" d="M33.5,234.6c-0.4,0.2-0.8,0.3-1.3,0.4c0.5-0.3,0.8-0.7,1-1.3c-0.4,0.3-0.9,0.5-1.4,0.5c-0.4-0.4-1-0.7-1.7-0.7
		c-1.3,0-2.3,1-2.3,2.3c0,0.2,0,0.4,0.1,0.5c-1.9-0.1-3.6-1-4.7-2.4c-0.2,0.3-0.3,0.7-0.3,1.1c0,0.8,0.4,1.5,1,1.9
		c-0.4,0-0.7-0.1-1-0.3l0,0c0,1.1,0.8,2,1.8,2.2c-0.2,0.1-0.4,0.1-0.6,0.1c-0.1,0-0.3,0-0.4,0c0.3,0.9,1.1,1.6,2.1,1.6
		c-0.8,0.6-1.8,1-2.8,1c-0.2,0-0.4,0-0.5,0c1,0.6,2.2,1,3.5,1c4.2,0,6.4-3.5,6.4-6.4v-0.3C32.8,235.4,33.2,235,33.5,234.6z"/>
</g>
<g id="Whatsapp_2_">
	<rect x="60" y="230" class="st23" width="16" height="16"/>
</g>
<g id="Pinterest">
	<rect x="80" y="230" class="st24" width="16" height="16"/>
	<path class="st1" d="M87.5,242.3c1.2,0.9,3.3,0.3,4.2-0.4c1.3-1.1,1.9-3.4,1.7-5.2c-0.2-2-2.1-3.8-4.3-4.1
		c-3.4-0.4-6.5,1.7-6.6,5.1c0,1.6,0.5,2.6,1.9,3.1c0.9-0.9-0.2-1.6-0.3-2.6c-0.3-2.8,3-5.5,6-3.8c2.1,1.2,1.7,6.5-0.8,7
		c-0.5,0.1-1.1-0.1-1.4-0.3c-1.2-1.1,1-3.1,0.3-4.7c-0.6-1.4-2.3-0.3-2.5,0.9c-0.1,0.7,0.2,1.3,0.2,1.9c0,1.4-0.9,3.3-1.1,4.6
		c-0.1,0.5-0.2,1.6,0,2.2l0,0h0.9c0.6-1.1,1.1-2.7,1.4-4.1C87.3,241.7,87.4,242.1,87.5,242.3z"/>
</g>
<path class="st1" d="M291.2,182.7c0.5-0.3,1.1-1.3,0.7-2.1c-0.4,0-0.5-0.4-0.8-0.2c0.3-0.4,1.3-1.6,0.8-2.5
	c-2.5-2.8-5.6-4.8-8.4-7.1c0.2,0.3-0.5,0.4-0.8,0.9c1.8,2.8,5.3,4.4,7.2,7.1c-0.3,0.7-0.9,0.8-1.4,1.1c-1.6-0.2-2.8-0.6-4.7-1.2
	c-0.4-0.1-0.9,0-1.3-0.1c-0.5-0.1-0.8-0.6-1.2-0.7c-0.3-0.1-0.8,0-1.3-0.2c-5.6-2.2-12.4-4-18.5-7.9c-0.5,0.3-0.7,0-1.2,0.1
	c-0.4,0.9-0.1,1.6,0,2.3c9,3.3,16.1,6.6,25.7,9.1c-1.6,1.1-4.1,2-6.4,2.3c-0.5,0.9-0.6,1.6-0.2,2.3c1.7-0.4,3.4-1.1,5.1-1
	c0.1-0.1,0.3-0.3,0.4-0.4c1.7-0.2,3.9-0.9,5.4-1.9C290.7,182.8,290.9,182.6,291.2,182.7"/>
<g id="Whatsapp_x5F_large_1_">
	<path id="Whatsapp_x5F_large" class="st23" d="M242,80c-6.6,0-12,5.4-12,12s5.4,12,12,12s12-5.4,12-12S248.6,80,242,80z"/>
	<path class="st1" d="M242.1,84.4c-4.1,0-7.4,3.3-7.4,7.4c0,1.4,0.4,2.7,1.1,3.8l-1.3,4l4.1-1.3c1.1,0.6,2.3,0.9,3.6,0.9
		c4.1,0,7.4-3.3,7.4-7.4C249.6,87.7,246.3,84.4,242.1,84.4z M242.1,98c-1.3,0-2.4-0.4-3.4-1l-2.4,0.8l0.8-2.3
		c-0.7-1-1.2-2.3-1.2-3.6c0-3.4,2.8-6.2,6.2-6.2s6.2,2.8,6.2,6.2C248.3,95.2,245.6,98,242.1,98z M245.6,93.5
		c-0.2-0.1-1.1-0.6-1.3-0.7s-0.3-0.1-0.4,0.1c-0.1,0.2-0.5,0.6-0.6,0.7s-0.2,0.1-0.4,0s-0.8-0.3-1.5-1c-0.5-0.5-0.9-1.2-1-1.4
		c-0.1-0.2,0-0.3,0.1-0.4l0.3-0.3c0.1-0.1,0.1-0.2,0.2-0.3c0.1-0.1,0-0.2,0-0.3c0-0.1-0.4-1-0.5-1.4s-0.3-0.3-0.4-0.3h-0.4
		c0,0-0.3,0-0.5,0.2s-0.7,0.6-0.7,1.6s0.6,1.9,0.7,2c0.1,0.1,1.2,2.2,3.1,3c1.9,0.8,1.9,0.6,2.3,0.6c0.3,0,1.1-0.4,1.3-0.9
		c0.2-0.4,0.2-0.8,0.1-0.9C246,93.7,245.8,93.6,245.6,93.5z"/>
</g>
<path class="st1" d="M68.1,232.5c-3,0-5.4,2.4-5.4,5.4c0,1,0.3,2,0.8,2.8l-1,2.9l3-1c0.8,0.4,1.7,0.7,2.6,0.7c3,0,5.4-2.4,5.4-5.4
	S71.1,232.5,68.1,232.5z M68.1,242.3c-0.9,0-1.8-0.3-2.5-0.7l-1.7,0.5l0.6-1.7c-0.5-0.7-0.9-1.6-0.9-2.6c0-2.5,2-4.5,4.5-4.5
	s4.5,2,4.5,4.5S70.6,242.3,68.1,242.3z M70.6,239.1c-0.1-0.1-0.8-0.4-0.9-0.5c-0.1,0-0.2-0.1-0.3,0.1c-0.1,0.1-0.4,0.4-0.5,0.5
	s-0.2,0.1-0.3,0c-0.1-0.1-0.6-0.2-1.1-0.7c-0.4-0.4-0.7-0.8-0.7-1c-0.1-0.1,0-0.2,0.1-0.3l0.2-0.2c0.1-0.1,0.1-0.1,0.1-0.2
	c0-0.1,0-0.2,0-0.2c0-0.1-0.3-0.8-0.4-1c-0.1-0.3-0.2-0.2-0.3-0.2h-0.3c0,0-0.2,0-0.4,0.2c-0.1,0.1-0.5,0.5-0.5,1.1
	c0,0.7,0.4,1.3,0.5,1.4s0.9,1.6,2.3,2.2s1.4,0.4,1.6,0.4c0.3,0,0.8-0.3,1-0.6c0.1-0.3,0.1-0.6,0.1-0.6
	C70.9,239.2,70.8,239.2,70.6,239.1z"/>
<path class="st0" d="M71.1,110.6c-0.2-0.4-0.7-0.5-1.1-0.3s-0.5,0.7-0.3,1.1l4.2,7.3c0.2,0.4,0.7,0.5,1.1,0.3s0.5-0.7,0.3-1.1
	L71.1,110.6z M62.7,115.3c-0.2-0.4-0.7-0.5-1.1-0.3c-0.4,0.2-0.5,0.7-0.3,1.1l4.2,7.3c0.2,0.4,0.7,0.5,1.1,0.3s0.5-0.7,0.3-1.1
	L62.7,115.3z M61.5,117.2c-0.2-0.4-0.7-0.5-1.1-0.2c-0.4,0.2-0.5,0.7-0.3,1.1l1.1,2l0,0c-0.5,0.3-0.6,0.9-0.4,1.3
	c0.3,0.5,0.9,0.6,1.3,0.4l0,0l1.1,2c0.2,0.4,0.7,0.5,1.1,0.2c0.4-0.2,0.5-0.7,0.3-1.1L61.5,117.2z M76.6,116l-1.1-2l0,0
	c0.5-0.3,0.6-0.9,0.4-1.3c-0.3-0.5-0.9-0.6-1.3-0.4l0,0l-1.1-2c-0.2-0.4-0.7-0.5-1.1-0.2c-0.4,0.2-0.5,0.7-0.3,1.1l3.3,5.6
	c0.2,0.4,0.7,0.5,1.1,0.2C76.6,116.8,76.8,116.3,76.6,116z M64.7,117.9l0.9,1.6l6.2-3.6l-0.9-1.6L64.7,117.9z"/>
<path class="st7" d="M9,272c-3.9,0-7,3.1-7,7s3.1,7,7,7s7-3.1,7-7S12.9,272,9,272z M9,284.5c-3,0-5.5-2.4-5.5-5.5
	c0-3,2.4-5.5,5.5-5.5c3,0,5.5,2.4,5.5,5.5C14.5,282,12,284.5,9,284.5z M9.1,274.5c-0.1,0-0.1,0-0.1,0.1l-0.6,3.6l0,0L5,276.6
	c-0.1,0-0.1,0-0.1,0l0,0v0.1c1,0.9,3.3,3.1,3.6,3.3c0.1,0,0.2,0.1,0.2,0.1c0.1,0.1,0.2,0.1,0.2,0.1l0,0c0.5,0,0.9-0.4,0.9-0.8
	C9.8,279.1,9.3,275.8,9.1,274.5C9.2,274.5,9.1,274.5,9.1,274.5z"/>
<path class="st7" d="M22.1,281.6c-0.9,0-1.6,0.7-1.6,1.5s0.7,1.5,1.6,1.5s1.6-0.7,1.6-1.5S23,281.6,22.1,281.6z M32.3,281.6
	c-0.9,0-1.6,0.7-1.6,1.5s0.7,1.5,1.6,1.5c0.9,0,1.6-0.7,1.6-1.5S33.2,281.6,32.3,281.6z M34.8,274.3c0-0.6-0.4-0.7-0.6-0.8h-7.7v6.3
	h8.4v-5.5H34.8z M35.1,281.4h-0.3v-0.9h-9.2v-7c0,0-0.6,0-3.2,0s-2.3,4.4-2.3,4.4l0,0c-0.2,0-0.6,0.2-0.7,0.8v2.6H19
	c-0.2,0-0.4,0.2-0.4,0.4c0,0.2,0.2,0.4,0.4,0.4h1.3c0.3-0.7,1.1-1.2,1.9-1.2s1.6,0.5,1.9,1.2h6.4c0.3-0.7,1.1-1.2,1.9-1.2
	s1.6,0.5,1.9,1.2h0.9c0.2,0,0.4-0.2,0.4-0.4C35.5,281.6,35.3,281.4,35.1,281.4z M24.9,277.9H21c0-1.8,0.4-2.7,0.8-3.2
	c0.5-0.4,1.1-0.4,1.1-0.4l0,0h2V277.9z"/>
<path class="st7" d="M41.5,279.5v-0.9H41c-0.3,0-0.4-0.1-0.4-0.4v-0.6c0-0.3,0.1-0.4,0.4-0.4h0.5v-1.3c0-1.4,0.9-2.8,4-2.8
	s4,1.4,4,2.8v0.8c0,0.3-0.1,0.4-0.4,0.4h-1.4c-0.3,0-0.4-0.1-0.4-0.4v-0.4c0-0.9-0.6-1.3-1.7-1.3c-1.1,0-1.7,0.4-1.7,1.3v0.9h1.7
	c0.3,0,0.4,0.1,0.4,0.4v0.6c0,0.3-0.1,0.4-0.4,0.4h-1.7v0.9h1.7c0.3,0,0.4,0.1,0.4,0.4v0.6c0,0.3-0.1,0.4-0.4,0.4h-1.7v0.8
	c0,0.9,0.6,1.3,1.7,1.3c1.1,0,1.7-0.4,1.7-1.3V281c0-0.3,0.1-0.4,0.4-0.4h1.4c0.3,0,0.4,0.1,0.4,0.4v1.1c0,1.4-0.9,2.8-4,2.8
	s-4-1.4-4-2.8v-1.3H41c-0.3,0-0.4-0.1-0.4-0.4v-0.6c0-0.3,0.1-0.4,0.4-0.4L41.5,279.5L41.5,279.5z"/>
<path class="st7" d="M66.8,275.2c0.1-0.2,0.5-1.1-0.1-2c-0.7-1-2.5-0.9-3-0.1c-0.5,0.7-0.7,0.9-0.7,1c0,0-0.2-0.2-0.7-1
	c-0.6-0.8-2.3-0.9-3,0.1c-0.6,0.9-0.2,1.7-0.1,2h-2.6v2.3h13v-2.3H66.8z M60.4,275.2c0,0-0.8-0.6-0.5-1.3c0.2-0.8,1.5-0.6,1.9-0.1
	s0.5,0.9,0.5,0.9l0.2,0.6L60.4,275.2z M65.6,275.2h-2.1l0.2-0.6c0,0,0.1-0.3,0.5-0.9c0.4-0.5,1.7-0.7,1.9,0.1
	C66.3,274.6,65.6,275.2,65.6,275.2z M65.2,278.3l1.4,2.5l-1.2-0.1l-0.6,0.9l-1.8-3.3l-1.8,3.3l-0.6-0.9l-1.2,0.1l1.5-2.7L61,278
	h-3.5v7.5h11.1V278h-3.5L65.2,278.3z"/>
<path class="st7" d="M83.1,272.6c-0.2-0.4-0.7-0.5-1.1-0.3s-0.5,0.7-0.3,1.1l4.2,7.3c0.2,0.4,0.7,0.5,1.1,0.3s0.5-0.7,0.3-1.1
	L83.1,272.6z M74.7,277.3c-0.2-0.4-0.7-0.5-1.1-0.3s-0.5,0.7-0.3,1.1l4.2,7.3c0.2,0.4,0.7,0.5,1.1,0.3s0.5-0.7,0.3-1.1L74.7,277.3z
	 M73.5,279.2c-0.2-0.4-0.7-0.5-1.1-0.2c-0.4,0.2-0.5,0.7-0.3,1.1l1.1,2l0,0c-0.5,0.3-0.6,0.9-0.4,1.3c0.3,0.5,0.9,0.6,1.3,0.4l0,0
	l1.1,2c0.2,0.4,0.7,0.5,1.1,0.2c0.4-0.2,0.5-0.7,0.3-1.1L73.5,279.2z M88.6,278l-1.1-2l0,0c0.5-0.3,0.6-0.9,0.4-1.3
	c-0.3-0.5-0.9-0.6-1.3-0.4l0,0l-1.1-2c-0.2-0.4-0.7-0.5-1.1-0.2c-0.4,0.2-0.5,0.7-0.3,1.1l3.3,5.6c0.2,0.4,0.7,0.5,1.1,0.2
	C88.6,278.8,88.8,278.3,88.6,278z M76.7,279.9l0.9,1.6l6.2-3.6l-0.9-1.6L76.7,279.9z"/>
<path class="st0" d="M9,292c-3.9,0-7,3.1-7,7s3.1,7,7,7s7-3.1,7-7S12.9,292,9,292z M9,304.5c-3,0-5.5-2.4-5.5-5.5
	c0-3,2.4-5.5,5.5-5.5c3,0,5.5,2.4,5.5,5.5C14.5,302,12,304.5,9,304.5z M9.1,294.5c-0.1,0-0.1,0-0.1,0.1l-0.6,3.6l0,0L5,296.6
	c-0.1,0-0.1,0-0.1,0l0,0v0.1c1,0.9,3.3,3.1,3.6,3.3c0.1,0,0.2,0.1,0.2,0.1c0.1,0.1,0.2,0.1,0.2,0.1l0,0c0.5,0,0.9-0.4,0.9-0.8
	C9.8,299.1,9.3,295.8,9.1,294.5C9.2,294.5,9.1,294.5,9.1,294.5z"/>
<path class="st0" d="M22.1,301.6c-0.9,0-1.6,0.7-1.6,1.5s0.7,1.5,1.6,1.5s1.6-0.7,1.6-1.5S23,301.6,22.1,301.6z M32.3,301.6
	c-0.9,0-1.6,0.7-1.6,1.5s0.7,1.5,1.6,1.5c0.9,0,1.6-0.7,1.6-1.5S33.2,301.6,32.3,301.6z M34.8,294.3c0-0.6-0.4-0.7-0.6-0.8h-7.7v6.3
	h8.4v-5.5H34.8z M35.1,301.4h-0.3v-0.9h-9.2v-7c0,0-0.6,0-3.2,0s-2.3,4.4-2.3,4.4l0,0c-0.2,0-0.6,0.2-0.7,0.8v2.6H19
	c-0.2,0-0.4,0.2-0.4,0.4c0,0.2,0.2,0.4,0.4,0.4h1.3c0.3-0.7,1.1-1.2,1.9-1.2s1.6,0.5,1.9,1.2h6.4c0.3-0.7,1.1-1.2,1.9-1.2
	s1.6,0.5,1.9,1.2h0.9c0.2,0,0.4-0.2,0.4-0.4C35.5,301.6,35.3,301.4,35.1,301.4z M24.9,297.9H21c0-1.8,0.4-2.7,0.8-3.2
	c0.5-0.4,1.1-0.4,1.1-0.4l0,0h2V297.9z"/>
<path class="st0" d="M41.5,299.5v-0.9H41c-0.3,0-0.4-0.1-0.4-0.4v-0.6c0-0.3,0.1-0.4,0.4-0.4h0.5v-1.3c0-1.4,0.9-2.8,4-2.8
	s4,1.4,4,2.8v0.8c0,0.3-0.1,0.4-0.4,0.4h-1.4c-0.3,0-0.4-0.1-0.4-0.4v-0.4c0-0.9-0.6-1.3-1.7-1.3c-1.1,0-1.7,0.4-1.7,1.3v0.9h1.7
	c0.3,0,0.4,0.1,0.4,0.4v0.6c0,0.3-0.1,0.4-0.4,0.4h-1.7v0.9h1.7c0.3,0,0.4,0.1,0.4,0.4v0.6c0,0.3-0.1,0.4-0.4,0.4h-1.7v0.8
	c0,0.9,0.6,1.3,1.7,1.3c1.1,0,1.7-0.4,1.7-1.3V301c0-0.3,0.1-0.4,0.4-0.4h1.4c0.3,0,0.4,0.1,0.4,0.4v1.1c0,1.4-0.9,2.8-4,2.8
	s-4-1.4-4-2.8v-1.3H41c-0.3,0-0.4-0.1-0.4-0.4v-0.6c0-0.3,0.1-0.4,0.4-0.4L41.5,299.5L41.5,299.5z"/>
<path class="st0" d="M66.8,295.2c0.1-0.2,0.5-1.1-0.1-2c-0.7-1-2.5-0.9-3-0.1c-0.5,0.7-0.7,0.9-0.7,1c0,0-0.2-0.2-0.7-1
	c-0.6-0.8-2.3-0.9-3,0.1c-0.6,0.9-0.2,1.7-0.1,2h-2.6v2.3h13v-2.3H66.8z M60.4,295.2c0,0-0.8-0.6-0.5-1.3c0.2-0.8,1.5-0.6,1.9-0.1
	s0.5,0.9,0.5,0.9l0.2,0.6L60.4,295.2z M65.6,295.2h-2.1l0.2-0.6c0,0,0.1-0.3,0.5-0.9c0.4-0.5,1.7-0.7,1.9,0.1
	C66.3,294.6,65.6,295.2,65.6,295.2z M65.2,298.3l1.4,2.5l-1.2-0.1l-0.6,0.9l-1.8-3.3l-1.8,3.3l-0.6-0.9l-1.2,0.1l1.5-2.7L61,298
	h-3.5v7.5h11.1V298h-3.5L65.2,298.3z"/>
<path class="st0" d="M83.1,292.6c-0.2-0.4-0.7-0.5-1.1-0.3s-0.5,0.7-0.3,1.1l4.2,7.3c0.2,0.4,0.7,0.5,1.1,0.3s0.5-0.7,0.3-1.1
	L83.1,292.6z M74.7,297.3c-0.2-0.4-0.7-0.5-1.1-0.3s-0.5,0.7-0.3,1.1l4.2,7.3c0.2,0.4,0.7,0.5,1.1,0.3s0.5-0.7,0.3-1.1L74.7,297.3z
	 M73.5,299.2c-0.2-0.4-0.7-0.5-1.1-0.2c-0.4,0.2-0.5,0.7-0.3,1.1l1.1,2l0,0c-0.5,0.3-0.6,0.9-0.4,1.3c0.3,0.5,0.9,0.6,1.3,0.4l0,0
	l1.1,2c0.2,0.4,0.7,0.5,1.1,0.2c0.4-0.2,0.5-0.7,0.3-1.1L73.5,299.2z M88.6,298l-1.1-2l0,0c0.5-0.3,0.6-0.9,0.4-1.3
	c-0.3-0.5-0.9-0.6-1.3-0.4l0,0l-1.1-2c-0.2-0.4-0.7-0.5-1.1-0.2c-0.4,0.2-0.5,0.7-0.3,1.1l3.3,5.6c0.2,0.4,0.7,0.5,1.1,0.2
	C88.6,298.8,88.8,298.3,88.6,298z M76.7,299.9l0.9,1.6l6.2-3.6l-0.9-1.6L76.7,299.9z"/>
<path class="st1" d="M9,252c-3.9,0-7,3.1-7,7s3.1,7,7,7s7-3.1,7-7S12.9,252,9,252z M9,264.5c-3,0-5.5-2.4-5.5-5.5
	c0-3,2.4-5.5,5.5-5.5c3,0,5.5,2.4,5.5,5.5C14.5,262,12,264.5,9,264.5z M9.1,254.5c-0.1,0-0.1,0-0.1,0.1l-0.6,3.6l0,0L5,256.6
	c-0.1,0-0.1,0-0.1,0l0,0v0.1c1,0.9,3.3,3.1,3.6,3.3c0.1,0,0.2,0.1,0.2,0.1c0.1,0.1,0.2,0.1,0.2,0.1l0,0c0.5,0,0.9-0.4,0.9-0.8
	C9.8,259.1,9.3,255.8,9.1,254.5C9.2,254.5,9.1,254.5,9.1,254.5z"/>
<path class="st1" d="M22.1,261.6c-0.9,0-1.6,0.7-1.6,1.5s0.7,1.5,1.6,1.5s1.6-0.7,1.6-1.5S23,261.6,22.1,261.6z M32.3,261.6
	c-0.9,0-1.6,0.7-1.6,1.5s0.7,1.5,1.6,1.5c0.9,0,1.6-0.7,1.6-1.5S33.2,261.6,32.3,261.6z M34.8,254.3c0-0.6-0.4-0.7-0.6-0.8h-7.7v6.3
	h8.4v-5.5L34.8,254.3L34.8,254.3z M35.1,261.4h-0.3v-0.9h-9.2v-7c0,0-0.6,0-3.2,0s-2.3,4.4-2.3,4.4l0,0c-0.2,0-0.6,0.2-0.7,0.8v2.6
	H19c-0.2,0-0.4,0.2-0.4,0.4c0,0.2,0.2,0.4,0.4,0.4h1.3c0.3-0.7,1.1-1.2,1.9-1.2s1.6,0.5,1.9,1.2h6.4c0.3-0.7,1.1-1.2,1.9-1.2
	s1.6,0.5,1.9,1.2h0.9c0.2,0,0.4-0.2,0.4-0.4C35.5,261.6,35.3,261.4,35.1,261.4z M24.9,257.9H21c0-1.8,0.4-2.7,0.8-3.2
	c0.5-0.4,1.1-0.4,1.1-0.4l0,0h2V257.9z"/>
<path class="st1" d="M41.5,259.5v-0.9H41c-0.3,0-0.4-0.1-0.4-0.4v-0.6c0-0.3,0.1-0.4,0.4-0.4h0.5v-1.3c0-1.4,0.9-2.8,4-2.8
	s4,1.4,4,2.8v0.8c0,0.3-0.1,0.4-0.4,0.4h-1.4c-0.3,0-0.4-0.1-0.4-0.4v-0.4c0-0.9-0.6-1.3-1.7-1.3c-1.1,0-1.7,0.4-1.7,1.3v0.9h1.7
	c0.3,0,0.4,0.1,0.4,0.4v0.6c0,0.3-0.1,0.4-0.4,0.4h-1.7v0.9h1.7c0.3,0,0.4,0.1,0.4,0.4v0.6c0,0.3-0.1,0.4-0.4,0.4h-1.7v0.8
	c0,0.9,0.6,1.3,1.7,1.3c1.1,0,1.7-0.4,1.7-1.3V261c0-0.3,0.1-0.4,0.4-0.4h1.4c0.3,0,0.4,0.1,0.4,0.4v1.1c0,1.4-0.9,2.8-4,2.8
	s-4-1.4-4-2.8v-1.3H41c-0.3,0-0.4-0.1-0.4-0.4v-0.6c0-0.3,0.1-0.4,0.4-0.4L41.5,259.5L41.5,259.5z"/>
<path class="st1" d="M66.8,255.2c0.1-0.2,0.5-1.1-0.1-2c-0.7-1-2.5-0.9-3-0.1c-0.5,0.7-0.7,0.9-0.7,1c0,0-0.2-0.2-0.7-1
	c-0.6-0.8-2.3-0.9-3,0.1c-0.6,0.9-0.2,1.7-0.1,2h-2.6v2.3h13v-2.3H66.8z M60.4,255.2c0,0-0.8-0.6-0.5-1.3c0.2-0.8,1.5-0.6,1.9-0.1
	s0.5,0.9,0.5,0.9l0.2,0.6L60.4,255.2z M65.6,255.2h-2.1l0.2-0.6c0,0,0.1-0.3,0.5-0.9c0.4-0.5,1.7-0.7,1.9,0.1S65.6,255.2,65.6,255.2
	z M65.2,258.3l1.4,2.5l-1.2-0.1l-0.6,0.9l-1.8-3.3l-1.8,3.3l-0.6-0.9l-1.2,0.1l1.5-2.7L61,258h-3.5v7.5h11.1V258h-3.5L65.2,258.3z"
	/>
<path class="st1" d="M83.1,252.6c-0.2-0.4-0.7-0.5-1.1-0.3s-0.5,0.7-0.3,1.1l4.2,7.3c0.2,0.4,0.7,0.5,1.1,0.3s0.5-0.7,0.3-1.1
	L83.1,252.6z M74.7,257.3c-0.2-0.4-0.7-0.5-1.1-0.3s-0.5,0.7-0.3,1.1l4.2,7.3c0.2,0.4,0.7,0.5,1.1,0.3s0.5-0.7,0.3-1.1L74.7,257.3z
	 M73.5,259.2c-0.2-0.4-0.7-0.5-1.1-0.2c-0.4,0.2-0.5,0.7-0.3,1.1l1.1,2l0,0c-0.5,0.3-0.6,0.9-0.4,1.3c0.3,0.5,0.9,0.6,1.3,0.4l0,0
	l1.1,2c0.2,0.4,0.7,0.5,1.1,0.2c0.4-0.2,0.5-0.7,0.3-1.1L73.5,259.2z M88.6,258l-1.1-2l0,0c0.5-0.3,0.6-0.9,0.4-1.3
	c-0.3-0.5-0.9-0.6-1.3-0.4l0,0l-1.1-2c-0.2-0.4-0.7-0.5-1.1-0.2c-0.4,0.2-0.5,0.7-0.3,1.1l3.3,5.6c0.2,0.4,0.7,0.5,1.1,0.2
	C88.6,258.8,88.8,258.3,88.6,258z M76.7,259.9l0.9,1.6l6.2-3.6l-0.9-1.6L76.7,259.9z"/>
<path class="st1" d="M132,194c-9.9,0-18,8.1-18,18s8.1,18,18,18s18-8.1,18-18S141.9,194,132,194z M132,226.1
	c-7.8,0-14.1-6.3-14.1-14.1s6.3-14.1,14.1-14.1s14.1,6.3,14.1,14.1S139.8,226.1,132,226.1z M132.1,200.4c-0.1,0-0.3,0.1-0.3,0.3
	l-1.4,9.1c0,0,0,0-0.1,0l-8.6-4c-0.1-0.1-0.3,0-0.4,0.1l0,0c-0.1,0.1-0.1,0.3,0,0.4c2.5,2.4,8.6,8.1,9.3,8.5
	c0.2,0.1,0.4,0.2,0.6,0.3c0.2,0.1,0.4,0.2,0.6,0.3h0.1c1.2,0,2.2-1,2.2-2.2c0-0.9-1.3-9.1-1.9-12.5
	C132.4,200.5,132.3,200.4,132.1,200.4z"/>
<path class="st1" d="M163.5,218.6c-2.2,0-4,1.7-4,3.8s1.8,3.8,4,3.8s4-1.7,4-3.8S165.7,218.6,163.5,218.6z M189.7,218.6
	c-2.2,0-4,1.7-4,3.8s1.8,3.8,4,3.8s4-1.7,4-3.8S191.9,218.6,189.7,218.6z M196.1,199.8c0-1.6-1.1-1.9-1.6-1.9h-19.9v16.3h21.5V199.8
	z M196.8,218.1h-0.6v-2.2h-23.7V198c0,0-1.6,0-8.2,0s-5.9,11.4-5.9,11.4h-0.1c-0.4,0.1-1.6,0.4-1.8,2v6.8h-1.1
	c-0.6,0-1.1,0.5-1.1,1.1s0.5,1.1,1.1,1.1h3.3c0.9-1.8,2.7-3,4.9-3s4.1,1.2,4.9,3h16.4c0.9-1.8,2.7-3,4.9-3s4.1,1.2,4.9,3h2.2
	c0.6,0,1.1-0.5,1.1-1.1C197.9,218.6,197.4,218.1,196.8,218.1z M170.6,209.1h-10.1c0-4.7,1.1-7,2.1-8.2c1.2-1.1,2.8-1.1,2.8-1.1l0,0
	h5.2V209.1L170.6,209.1z"/>
<path class="st1" d="M210.9,213.3v-2.4h-1.4c-0.7,0-1.1-0.3-1.1-1.1v-1.6c0-0.8,0.4-1.1,1.1-1.1h1.4v-3.4c0-3.7,2.4-7.2,10.3-7.2
	c8,0,10.3,3.5,10.3,7.2v2.1c0,0.8-0.3,1.1-1,1.1h-3.7c-0.8,0-1.1-0.3-1.1-1.1v-1.1c0-2.2-1.5-3.3-4.5-3.3c-2.9,0-4.4,1.1-4.4,3.3
	v2.3h4.3c0.8,0,1.1,0.3,1.1,1.1v1.6c0,0.8-0.3,1.1-1.1,1.1h-4.3v2.4h4.3c0.8,0,1.1,0.3,1.1,1v1.6c0,0.8-0.3,1.1-1.1,1.1h-4.3v2.2
	c0,2.2,1.5,3.3,4.4,3.3s4.5-1.1,4.5-3.3v-1.7c0-0.8,0.3-1.1,1.1-1.1h3.7c0.7,0,1,0.3,1,1.1v2.8c0,3.7-2.4,7.2-10.3,7.2
	c-8,0-10.3-3.5-10.3-7.2V217h-1.4c-0.7,0-1.1-0.3-1.1-1.1v-1.6c0-0.8,0.4-1,1.1-1L210.9,213.3L210.9,213.3z"/>
<path class="st1" d="M273.8,202.3c0.3-0.6,1.4-2.9-0.2-5.1c-1.8-2.6-6.3-2.4-7.8-0.3c-1.3,1.9-1.8,2.4-1.9,2.5
	c-0.1-0.1-0.5-0.6-1.9-2.5c-1.5-2.1-6-2.3-7.8,0.3c-1.6,2.2-0.5,4.5-0.2,5.1h-6.7v6h33.4v-6H273.8z M257.2,202.3c0,0-2-1.5-1.4-3.4
	c0.6-2,3.8-1.6,4.9-0.2c1.1,1.4,1.4,2.3,1.4,2.3l0.6,1.4L257.2,202.3z M270.6,202.3h-5.5l0.6-1.4c0,0,0.3-0.9,1.4-2.3
	c1.1-1.4,4.3-1.8,4.9,0.2S270.6,202.3,270.6,202.3z M269.8,210.2l3.7,6.5l-3-0.4l-1.6,2.4l-4.8-8.5l-4.8,8.5l-1.6-2.4l-3,0.4
	l3.9-6.9l0.2-0.3h-9.1v19.2h28.6v-19.2h-9L269.8,210.2z"/>
<path class="st1" d="M315.1,195.6c-0.6-1-1.9-1.4-2.9-0.8c-1,0.6-1.4,1.9-0.8,2.9l10.8,18.7c0.6,1,1.9,1.4,2.9,0.8
	c1-0.6,1.4-1.9,0.8-2.9L315.1,195.6z M293.5,207.6c-0.6-1-1.9-1.4-2.9-0.8c-1,0.6-1.4,1.9-0.8,2.9l10.8,18.7c0.6,1,1.9,1.4,2.9,0.8
	c1-0.6,1.4-1.9,0.8-2.9L293.5,207.6z M290.5,212.5c-0.5-0.9-1.8-1.2-2.8-0.6c-1,0.6-1.4,1.8-0.9,2.7l2.9,5.1l0,0
	c-1.2,0.7-1.6,2.2-0.9,3.4s2.2,1.6,3.4,0.9l0,0l2.9,5.1c0.5,0.9,1.8,1.2,2.8,0.6c1-0.6,1.4-1.8,0.9-2.7L290.5,212.5z M329.2,209.4
	l-2.9-5.1l0,0c1.2-0.7,1.6-2.2,0.9-3.4s-2.2-1.6-3.4-0.9l0,0l-2.9-5.1c-0.5-0.9-1.8-1.2-2.8-0.6c-1,0.6-1.4,1.8-0.9,2.7l8.4,14.5
	c0.5,0.9,1.8,1.2,2.8,0.6C329.3,211.5,329.7,210.3,329.2,209.4z M298.6,214.4l2.3,4l15.9-9.2l-2.3-4L298.6,214.4z"/>
<path class="st7" d="M132,234c-9.9,0-18,8.1-18,18s8.1,18,18,18s18-8.1,18-18S141.9,234,132,234z M132,266.1
	c-7.8,0-14.1-6.3-14.1-14.1c0-7.8,6.3-14.1,14.1-14.1s14.1,6.3,14.1,14.1C146.1,259.8,139.8,266.1,132,266.1z M132.1,240.4
	c-0.1,0-0.3,0.1-0.3,0.3l-1.4,9.1c0,0,0,0-0.1,0l-8.6-4c-0.1-0.1-0.3,0-0.4,0.1l0,0c-0.1,0.1-0.1,0.3,0,0.4c2.5,2.4,8.6,8.1,9.3,8.5
	c0.2,0.1,0.4,0.2,0.6,0.3c0.2,0.1,0.4,0.2,0.6,0.3h0.1c1.2,0,2.2-1,2.2-2.2c0-0.9-1.3-9.1-1.9-12.5
	C132.4,240.5,132.3,240.4,132.1,240.4z"/>
<path class="st7" d="M163.5,258.6c-2.2,0-4,1.7-4,3.8c0,2.1,1.8,3.8,4,3.8s4-1.7,4-3.8C167.5,260.3,165.7,258.6,163.5,258.6z
	 M189.7,258.6c-2.2,0-4,1.7-4,3.8c0,2.1,1.8,3.8,4,3.8s4-1.7,4-3.8C193.7,260.3,191.9,258.6,189.7,258.6z M196.1,239.8
	c0-1.6-1.1-1.9-1.6-1.9h-19.9v16.3h21.5V239.8z M196.8,258.1h-0.6v-2.2h-23.7V238c0,0-1.6,0-8.2,0s-5.9,11.4-5.9,11.4h-0.1
	c-0.4,0.1-1.6,0.4-1.8,2v6.8h-1.1c-0.6,0-1.1,0.5-1.1,1.1s0.5,1.1,1.1,1.1h3.3c0.9-1.8,2.7-3,4.9-3s4.1,1.2,4.9,3h16.4
	c0.9-1.8,2.7-3,4.9-3s4.1,1.2,4.9,3h2.2c0.6,0,1.1-0.5,1.1-1.1C197.9,258.6,197.4,258.1,196.8,258.1z M170.6,249.1h-10.1
	c0-4.7,1.1-7,2.1-8.2c1.2-1.1,2.8-1.1,2.8-1.1l0,0h5.2V249.1L170.6,249.1z"/>
<path class="st7" d="M210.9,253.3v-2.4h-1.4c-0.7,0-1.1-0.3-1.1-1.1v-1.6c0-0.8,0.4-1.1,1.1-1.1h1.4v-3.4c0-3.7,2.4-7.2,10.3-7.2
	c8,0,10.3,3.5,10.3,7.2v2.1c0,0.8-0.3,1.1-1,1.1h-3.7c-0.8,0-1.1-0.3-1.1-1.1v-1.1c0-2.2-1.5-3.3-4.5-3.3c-2.9,0-4.4,1.1-4.4,3.3
	v2.3h4.3c0.8,0,1.1,0.3,1.1,1.1v1.6c0,0.8-0.3,1.1-1.1,1.1h-4.3v2.4h4.3c0.8,0,1.1,0.3,1.1,1v1.6c0,0.8-0.3,1.1-1.1,1.1h-4.3v2.2
	c0,2.2,1.5,3.3,4.4,3.3s4.5-1.1,4.5-3.3v-1.7c0-0.8,0.3-1.1,1.1-1.1h3.7c0.7,0,1,0.3,1,1.1v2.8c0,3.7-2.4,7.2-10.3,7.2
	c-8,0-10.3-3.5-10.3-7.2V257h-1.4c-0.7,0-1.1-0.3-1.1-1.1v-1.6c0-0.8,0.4-1,1.1-1L210.9,253.3L210.9,253.3z"/>
<path class="st7" d="M273.8,242.3c0.3-0.6,1.4-2.9-0.2-5.1c-1.8-2.6-6.3-2.4-7.8-0.3c-1.3,1.9-1.8,2.4-1.9,2.5
	c-0.1-0.1-0.5-0.6-1.9-2.5c-1.5-2.1-6-2.3-7.8,0.3c-1.6,2.2-0.5,4.5-0.2,5.1h-6.7v6h33.4v-6H273.8z M257.2,242.3c0,0-2-1.5-1.4-3.4
	c0.6-2,3.8-1.6,4.9-0.2c1.1,1.4,1.4,2.3,1.4,2.3l0.6,1.4L257.2,242.3z M270.6,242.3h-5.5l0.6-1.4c0,0,0.3-0.9,1.4-2.3
	c1.1-1.4,4.3-1.8,4.9,0.2S270.6,242.3,270.6,242.3z M269.8,250.2l3.7,6.5l-3-0.4l-1.6,2.4l-4.8-8.5l-4.8,8.5l-1.6-2.4l-3,0.4
	l3.9-6.9l0.2-0.3h-9.1v19.2h28.6v-19.2h-9L269.8,250.2z"/>
<path class="st7" d="M315.1,235.6c-0.6-1-1.9-1.4-2.9-0.8c-1,0.6-1.4,1.9-0.8,2.9l10.8,18.7c0.6,1,1.9,1.4,2.9,0.8s1.4-1.9,0.8-2.9
	L315.1,235.6z M293.5,247.6c-0.6-1-1.9-1.4-2.9-0.8c-1,0.6-1.4,1.9-0.8,2.9l10.8,18.7c0.6,1,1.9,1.4,2.9,0.8s1.4-1.9,0.8-2.9
	L293.5,247.6z M290.5,252.5c-0.5-0.9-1.8-1.2-2.8-0.6c-1,0.6-1.4,1.8-0.9,2.7l2.9,5.1l0,0c-1.2,0.7-1.6,2.2-0.9,3.4
	c0.7,1.2,2.2,1.6,3.4,0.9l0,0l2.9,5.1c0.5,0.9,1.8,1.2,2.8,0.6s1.4-1.8,0.9-2.7L290.5,252.5z M329.2,249.4l-2.9-5.1l0,0
	c1.2-0.7,1.6-2.2,0.9-3.4s-2.2-1.6-3.4-0.9l0,0l-2.9-5.1c-0.5-0.9-1.8-1.2-2.8-0.6c-1,0.6-1.4,1.8-0.9,2.7l8.4,14.5
	c0.5,0.9,1.8,1.2,2.8,0.6C329.3,251.5,329.7,250.3,329.2,249.4z M298.6,254.4l2.3,4l15.9-9.2l-2.3-4L298.6,254.4z"/>
<path class="st0" d="M132,274c-9.9,0-18,8.1-18,18s8.1,18,18,18s18-8.1,18-18S141.9,274,132,274z M132,306.1
	c-7.8,0-14.1-6.3-14.1-14.1c0-7.8,6.3-14.1,14.1-14.1s14.1,6.3,14.1,14.1C146.1,299.8,139.8,306.1,132,306.1z M132.1,280.4
	c-0.1,0-0.3,0.1-0.3,0.3l-1.4,9.1c0,0,0,0-0.1,0l-8.6-4c-0.1-0.1-0.3,0-0.4,0.1l0,0c-0.1,0.1-0.1,0.3,0,0.4c2.5,2.4,8.6,8.1,9.3,8.5
	c0.2,0.1,0.4,0.2,0.6,0.3c0.2,0.1,0.4,0.2,0.6,0.3h0.1c1.2,0,2.2-1,2.2-2.2c0-0.9-1.3-9.1-1.9-12.5
	C132.4,280.5,132.3,280.4,132.1,280.4z"/>
<path class="st0" d="M163.5,298.6c-2.2,0-4,1.7-4,3.8c0,2.1,1.8,3.8,4,3.8s4-1.7,4-3.8C167.5,300.3,165.7,298.6,163.5,298.6z
	 M189.7,298.6c-2.2,0-4,1.7-4,3.8c0,2.1,1.8,3.8,4,3.8s4-1.7,4-3.8C193.7,300.3,191.9,298.6,189.7,298.6z M196.1,279.8
	c0-1.6-1.1-1.9-1.6-1.9h-19.9v16.3h21.5V279.8z M196.8,298.1h-0.6v-2.2h-23.7V278c0,0-1.6,0-8.2,0s-5.9,11.4-5.9,11.4h-0.1
	c-0.4,0.1-1.6,0.4-1.8,2v6.8h-1.1c-0.6,0-1.1,0.5-1.1,1.1s0.5,1.1,1.1,1.1h3.3c0.9-1.8,2.7-3,4.9-3s4.1,1.2,4.9,3h16.4
	c0.9-1.8,2.7-3,4.9-3s4.1,1.2,4.9,3h2.2c0.6,0,1.1-0.5,1.1-1.1C197.9,298.6,197.4,298.1,196.8,298.1z M170.6,289.1h-10.1
	c0-4.7,1.1-7,2.1-8.2c1.2-1.1,2.8-1.1,2.8-1.1l0,0h5.2V289.1L170.6,289.1z"/>
<path class="st0" d="M210.9,293.3v-2.4h-1.4c-0.7,0-1.1-0.3-1.1-1.1v-1.5c0-0.8,0.4-1.1,1.1-1.1h1.4v-3.4c0-3.7,2.4-7.2,10.3-7.2
	c8,0,10.3,3.5,10.3,7.2v2.1c0,0.8-0.3,1.1-1,1.1h-3.7c-0.8,0-1.1-0.3-1.1-1.1v-1.1c0-2.2-1.5-3.3-4.5-3.3c-2.9,0-4.4,1.1-4.4,3.3
	v2.3h4.3c0.8,0,1.1,0.3,1.1,1.1v1.5c0,0.8-0.3,1.1-1.1,1.1h-4.3v2.4h4.3c0.8,0,1.1,0.3,1.1,1v1.6c0,0.8-0.3,1.1-1.1,1.1h-4.3v2.2
	c0,2.2,1.5,3.3,4.4,3.3s4.5-1.1,4.5-3.3v-1.7c0-0.8,0.3-1.1,1.1-1.1h3.7c0.7,0,1,0.3,1,1.1v2.8c0,3.7-2.4,7.2-10.3,7.2
	c-8,0-10.3-3.5-10.3-7.2V297h-1.4c-0.7,0-1.1-0.3-1.1-1.1v-1.6c0-0.8,0.4-1,1.1-1H210.9z"/>
<path class="st0" d="M273.8,282.3c0.3-0.6,1.4-2.9-0.2-5.1c-1.8-2.6-6.3-2.4-7.8-0.3c-1.3,1.9-1.8,2.4-1.9,2.5
	c-0.1-0.1-0.5-0.6-1.9-2.5c-1.5-2.1-6-2.3-7.8,0.3c-1.6,2.2-0.5,4.5-0.2,5.1h-6.7v6h33.4v-6H273.8z M257.2,282.3c0,0-2-1.5-1.4-3.4
	c0.6-2,3.8-1.6,4.9-0.2s1.4,2.3,1.4,2.3l0.6,1.4L257.2,282.3z M270.6,282.3h-5.5l0.6-1.4c0,0,0.3-0.9,1.4-2.3s4.3-1.8,4.9,0.2
	C272.6,280.8,270.6,282.3,270.6,282.3z M269.8,290.2l3.7,6.5l-3-0.4l-1.6,2.4l-4.8-8.5l-4.8,8.5l-1.6-2.4l-3,0.4l3.9-6.9l0.2-0.3
	h-9.1v19.2h28.6v-19.2h-9L269.8,290.2z"/>
<path class="st0" d="M315.1,275.6c-0.6-1-1.9-1.4-2.9-0.8s-1.4,1.9-0.8,2.9l10.8,18.7c0.6,1,1.9,1.4,2.9,0.8s1.4-1.9,0.8-2.9
	L315.1,275.6z M293.5,287.6c-0.6-1-1.9-1.4-2.9-0.8s-1.4,1.9-0.8,2.9l10.8,18.7c0.6,1,1.9,1.4,2.9,0.8s1.4-1.9,0.8-2.9L293.5,287.6z
	 M290.5,292.5c-0.5-0.9-1.8-1.2-2.8-0.6s-1.4,1.8-0.9,2.7l2.9,5.1l0,0c-1.2,0.7-1.6,2.2-0.9,3.4c0.7,1.2,2.2,1.6,3.4,0.9l0,0
	l2.9,5.1c0.5,0.9,1.8,1.2,2.8,0.6s1.4-1.8,0.9-2.7L290.5,292.5z M329.2,289.4l-2.9-5.1l0,0c1.2-0.7,1.6-2.2,0.9-3.4
	c-0.7-1.2-2.2-1.6-3.4-0.9l0,0l-2.9-5.1c-0.5-0.9-1.8-1.2-2.8-0.6s-1.4,1.8-0.9,2.7l8.4,14.5c0.5,0.9,1.8,1.2,2.8,0.6
	C329.3,291.5,329.7,290.3,329.2,289.4z M298.6,294.4l2.3,4l15.9-9.2l-2.3-4L298.6,294.4z"/>
<g id="Whatsapp_x5F_large_2_">
	<path id="Whatsapp_x5F_large_3_" class="st25" d="M312,30c-6.6,0-12,5.4-12,12s5.4,12,12,12s12-5.4,12-12S318.6,30,312,30z"/>
	<path class="st1" d="M316.6,36h-9.1c-0.8,0-1.4,0.6-1.4,1.4v9.2c0,0.8,0.6,1.4,1.4,1.4h9.1c0.8,0,1.4-0.6,1.4-1.4v-9.2
		C318,36.6,317.4,36,316.6,36z M314.3,37.7c0-0.2,0.1-0.3,0.3-0.3h1.6c0.2,0,0.3,0.2,0.3,0.3v1.6c0,0.2-0.1,0.3-0.3,0.3h-1.6
		c-0.2,0-0.3-0.2-0.3-0.3V37.7z M312,39.7c1.3,0,2.3,1,2.3,2.3s-1,2.3-2.3,2.3s-2.3-1-2.3-2.3S310.7,39.7,312,39.7z M316.7,46.3
		c0,0.2-0.1,0.3-0.3,0.3h-8.6c-0.2,0-0.3-0.2-0.3-0.3v-5.2h1.1c-0.1,0.3-0.1,0.6-0.1,1c0,2,1.6,3.6,3.6,3.6s3.6-1.6,3.6-3.6
		c0-0.3,0-0.7-0.1-1h1.1L316.7,46.3L316.7,46.3z"/>
</g>
<g>
	<path id="prev_x5F_big_x5F_1_1_" class="st1" d="M150.5,116L150.5,116l0.6-0.5l5.8-5c0.7-0.6,1.7-0.6,2.4,0l0.6,0.5
		c0.7,0.6,0.7,1.5,0,2.1l-4.6,4l4.6,3.9c0.7,0.6,0.7,1.5,0,2.1l-0.6,0.5c-0.7,0.6-1.7,0.6-2.4,0l-5.6-4.9c-0.1,0-0.1-0.1-0.2-0.1
		l-0.6-0.5C149.8,117.5,149.8,116.6,150.5,116z"/>
	<path id="next_x5F_big_x5F_1_1_" class="st1" d="M175.5,118L175.5,118l-0.6,0.5l-5.8,5c-0.7,0.6-1.7,0.6-2.4,0l-0.6-0.5
		c-0.7-0.6-0.7-1.5,0-2.1l4.6-4l-4.6-3.9c-0.7-0.6-0.7-1.5,0-2.1l0.6-0.5c0.7-0.6,1.7-0.6,2.4,0l5.6,4.9c0.1,0,0.1,0.1,0.2,0.1
		l0.6,0.5C176.2,116.5,176.2,117.4,175.5,118z"/>
</g>
<g>
	<g>
		<path class="st26" d="M14.5,314.9l-4.2-0.6l-2-3.8c-0.3-0.6-1.2-0.6-1.5,0l-2,3.8l-4.2,0.6c-0.3,0-0.6,0.3-0.6,0.6
			c-0.2,0.3,0,0.6,0.2,0.8l3,2.9l-0.8,4.2c0,0.3,0,0.6,0.3,0.8c0.3,0.2,0.6,0.2,0.9,0l3.8-2l3.8,2c0.2,0,0.3,0.2,0.3,0.2
			c0.2,0,0.3,0,0.5-0.2c0.3-0.2,0.3-0.5,0.3-0.8l-0.8-4.2l3-2.9c0.2-0.2,0.3-0.5,0.2-0.8C15.1,315.2,14.8,314.9,14.5,314.9z
			 M33.3,314.9l-4.2-0.6l-2-3.8c-0.3-0.6-1.2-0.6-1.5,0l-2,3.8l-4.2,0.6c-0.3,0-0.6,0.3-0.6,0.6c-0.2,0.3,0,0.6,0.2,0.8l3,2.9
			l-0.8,4.2c0,0.3,0,0.6,0.3,0.8c0.3,0.2,0.6,0.2,0.9,0l3.8-2l3.8,2c0.2,0,0.3,0.2,0.3,0.2c0.2,0,0.3,0,0.5-0.2
			c0.3-0.2,0.3-0.5,0.3-0.8l-0.8-4.2l3-2.9c0.2-0.2,0.3-0.5,0.2-0.8C33.9,315.2,33.6,314.9,33.3,314.9z M52.1,314.9l-4.2-0.6l-2-3.8
			c-0.3-0.6-1.2-0.6-1.5,0l-2,3.8l-4.2,0.6c-0.3,0-0.6,0.3-0.6,0.6c-0.2,0.3,0,0.6,0.2,0.8l3,2.9l-0.8,4.2c0,0.3,0,0.6,0.3,0.8
			c0.3,0.2,0.6,0.2,0.9,0l3.8-2l3.8,2c0.2,0,0.3,0.2,0.3,0.2c0.2,0,0.3,0,0.5-0.2c0.3-0.2,0.3-0.5,0.3-0.8l-0.8-4.2l3-2.9
			c0.2-0.2,0.3-0.5,0.2-0.8C52.7,315.2,52.4,314.9,52.1,314.9z M70.8,314.9l-4.2-0.6l-2-3.8c-0.3-0.6-1.2-0.6-1.5,0l-2,3.8l-4.2,0.6
			c-0.3,0-0.6,0.3-0.6,0.6c-0.2,0.3,0,0.6,0.2,0.8l3,2.9l-0.8,4.2c0,0.3,0,0.6,0.3,0.8s0.6,0.2,0.9,0l3.8-2l3.8,2
			c0.2,0,0.3,0.2,0.3,0.2c0.2,0,0.3,0,0.5-0.2c0.3-0.2,0.3-0.5,0.3-0.8l-0.8-4.2l3-2.9c0.2-0.2,0.3-0.5,0.2-0.8
			C71.5,315.2,71.2,314.9,70.8,314.9z M89.6,314.9l-4.2-0.6l-2-3.8c-0.3-0.6-1.2-0.6-1.5,0l-2,3.8l-4.2,0.6c-0.3,0-0.6,0.3-0.6,0.6
			c-0.2,0.3,0,0.6,0.2,0.8l3,2.9l-0.8,4.2c0,0.3,0,0.6,0.3,0.8c0.3,0.2,0.6,0.2,0.9,0l3.8-2l3.8,2c0.2,0,0.3,0.2,0.3,0.2
			c0.2,0,0.3,0,0.5-0.2c0.3-0.2,0.3-0.5,0.3-0.8l-0.8-4.2l3-2.9c0.2-0.2,0.3-0.5,0.2-0.8C90.2,315.2,89.9,314.9,89.6,314.9z"/>
	</g>
</g>
<g>
	<g>
		<path class="st10" d="M14.5,334.9l-4.2-0.6l-2-3.8c-0.3-0.6-1.2-0.6-1.5,0l-2,3.8l-4.2,0.6c-0.3,0-0.6,0.3-0.6,0.6
			c-0.2,0.3,0,0.6,0.2,0.8l3,2.9l-0.8,4.2c0,0.3,0,0.6,0.3,0.8c0.3,0.2,0.6,0.2,0.9,0l3.8-2l3.8,2c0.2,0,0.3,0.2,0.3,0.2
			c0.2,0,0.3,0,0.5-0.2c0.3-0.2,0.3-0.5,0.3-0.8l-0.8-4.2l3-2.9c0.2-0.2,0.3-0.5,0.2-0.8C15.1,335.2,14.8,334.9,14.5,334.9z
			 M33.3,334.9l-4.2-0.6l-2-3.8c-0.3-0.6-1.2-0.6-1.5,0l-2,3.8l-4.2,0.6c-0.3,0-0.6,0.3-0.6,0.6c-0.2,0.3,0,0.6,0.2,0.8l3,2.9
			l-0.8,4.2c0,0.3,0,0.6,0.3,0.8c0.3,0.2,0.6,0.2,0.9,0l3.8-2l3.8,2c0.2,0,0.3,0.2,0.3,0.2c0.2,0,0.3,0,0.5-0.2
			c0.3-0.2,0.3-0.5,0.3-0.8l-0.8-4.2l3-2.9c0.2-0.2,0.3-0.5,0.2-0.8C33.9,335.2,33.6,334.9,33.3,334.9z M52.1,334.9l-4.2-0.6l-2-3.8
			c-0.3-0.6-1.2-0.6-1.5,0l-2,3.8l-4.2,0.6c-0.3,0-0.6,0.3-0.6,0.6c-0.2,0.3,0,0.6,0.2,0.8l3,2.9l-0.8,4.2c0,0.3,0,0.6,0.3,0.8
			c0.3,0.2,0.6,0.2,0.9,0l3.8-2l3.8,2c0.2,0,0.3,0.2,0.3,0.2c0.2,0,0.3,0,0.5-0.2c0.3-0.2,0.3-0.5,0.3-0.8l-0.8-4.2l3-2.9
			c0.2-0.2,0.3-0.5,0.2-0.8C52.7,335.2,52.4,334.9,52.1,334.9z M70.8,334.9l-4.2-0.6l-2-3.8c-0.3-0.6-1.2-0.6-1.5,0l-2,3.8l-4.2,0.6
			c-0.3,0-0.6,0.3-0.6,0.6c-0.2,0.3,0,0.6,0.2,0.8l3,2.9l-0.8,4.2c0,0.3,0,0.6,0.3,0.8s0.6,0.2,0.9,0l3.8-2l3.8,2
			c0.2,0,0.3,0.2,0.3,0.2c0.2,0,0.3,0,0.5-0.2c0.3-0.2,0.3-0.5,0.3-0.8l-0.8-4.2l3-2.9c0.2-0.2,0.3-0.5,0.2-0.8
			C71.5,335.2,71.2,334.9,70.8,334.9z M89.6,334.9l-4.2-0.6l-2-3.8c-0.3-0.6-1.2-0.6-1.5,0l-2,3.8l-4.2,0.6c-0.3,0-0.6,0.3-0.6,0.6
			c-0.2,0.3,0,0.6,0.2,0.8l3,2.9l-0.8,4.2c0,0.3,0,0.6,0.3,0.8c0.3,0.2,0.6,0.2,0.9,0l3.8-2l3.8,2c0.2,0,0.3,0.2,0.3,0.2
			c0.2,0,0.3,0,0.5-0.2c0.3-0.2,0.3-0.5,0.3-0.8l-0.8-4.2l3-2.9c0.2-0.2,0.3-0.5,0.2-0.8C90.2,335.2,89.9,334.9,89.6,334.9z"/>
	</g>
</g>
<path class="st7" d="M91,279v6.9c0,0.7,0.5,1.2,1,1.2h2.3v-9.2H92C91.5,277.8,91,278.3,91,279z M107,280c0-0.5-0.3-1-0.7-1.3
	c0.3-0.3,0.4-0.6,0.4-1c0-0.8-0.7-1.5-1.5-1.5h-4.6l0.3-1.2c0.3-1.3,0-2.8-1-3.7c-0.1-0.1-0.1-0.1-0.2-0.2l0,0l0,0
	c-0.2-0.1-0.4-0.2-0.7-0.2c-0.3,0-0.5,0.1-0.7,0.2c-0.3,0.2-0.5,0.6-0.5,1v2l-2.1,3.2c-0.1,0.1-0.1,0.2-0.2,0.3
	c0,0.1-0.1,0.2-0.1,0.3c-0.1,0.2-0.1,0.4-0.1,0.6v7.5h8.4c0.8,0,1.5-0.7,1.5-1.5c0-0.3-0.1-0.6-0.3-0.8c0.7-0.1,1.3-0.7,1.3-1.4
	c0-0.3-0.1-0.6-0.3-0.9C106.5,281.3,107,280.7,107,280z"/>
<path class="st0" d="M91,299v6.9c0,0.7,0.5,1.2,1,1.2h2.3v-9.2H92C91.5,297.8,91,298.4,91,299z M107,300.1c0-0.5-0.3-1-0.7-1.3
	c0.3-0.3,0.4-0.6,0.4-1c0-0.8-0.7-1.5-1.5-1.5h-4.6l0.3-1.2c0.3-1.3,0-2.8-1-3.7c-0.1-0.1-0.1-0.1-0.2-0.2l0,0l0,0
	c-0.2-0.1-0.4-0.2-0.7-0.2c-0.3,0-0.5,0.1-0.7,0.2c-0.3,0.2-0.5,0.6-0.5,1v2l-2.1,3.2c-0.1,0.1-0.1,0.2-0.2,0.3
	c0,0.1-0.1,0.2-0.1,0.3c-0.1,0.2-0.1,0.4-0.1,0.6v7.5h8.4c0.8,0,1.5-0.7,1.5-1.5c0-0.3-0.1-0.6-0.3-0.8c0.7-0.1,1.3-0.7,1.3-1.4
	c0-0.3-0.1-0.6-0.3-0.9C106.5,301.3,107,300.8,107,300.1z"/>
<path class="st27" d="M114.6,318.8l-0.4-0.3c-0.4-0.4-0.6-1-0.3-1.5l0.2-0.5c0.3-0.7-0.1-1.5-0.8-1.8l-0.5-0.1
	c-0.5-0.2-0.9-0.6-0.9-1.2l0-0.5c0-0.7-0.6-1.2-1.3-1.2c-0.1,0-0.2,0-0.2,0l-0.5,0.1c-0.1,0-0.1,0-0.2,0c-0.5,0-0.9-0.3-1.1-0.7
	l-0.2-0.4c-0.4-0.7-1.3-0.9-1.9-0.4l-0.4,0.3c-0.5,0.3-1.1,0.3-1.5,0l-0.4-0.3c-0.6-0.5-1.5-0.3-1.9,0.4l-0.2,0.5
	c-0.3,0.5-0.8,0.8-1.4,0.7l-0.5-0.1c-0.1,0-0.2,0-0.2,0c-0.7,0-1.3,0.5-1.3,1.2l0,0.5c0,0.6-0.4,1-0.9,1.2l-0.5,0.1
	c-0.8,0.2-1.2,1-0.8,1.8l0.2,0.5c0.2,0.5,0.1,1.1-0.3,1.5l-0.4,0.3c-0.6,0.5-0.6,1.4,0,1.9l0.4,0.3c0.4,0.4,0.6,1,0.3,1.5l-0.2,0.5
	c-0.3,0.7,0.1,1.5,0.8,1.8l0.5,0.1c0.5,0.2,0.9,0.6,0.9,1.2l0,0.5c0,0.7,0.6,1.2,1.3,1.2c0.1,0,0.2,0,0.2,0l0.5-0.1
	c0.6-0.1,1.1,0.2,1.4,0.7l0.2,0.4c0.4,0.7,1.3,0.9,1.9,0.4l0.4-0.3c0.5-0.3,1.1-0.3,1.5,0l0.4,0.3c0.6,0.5,1.5,0.3,1.9-0.4l0.2-0.4
	c0.3-0.5,0.8-0.8,1.4-0.7l0.5,0.1c0.1,0,0.2,0,0.2,0c0.7,0,1.3-0.5,1.3-1.2l0-0.5c0-0.6,0.4-1,1-1.2l0.5-0.1c0.8-0.2,1.2-1,0.8-1.8
	l-0.2-0.5c-0.2-0.5-0.1-1.1,0.3-1.5l0.4-0.3C115.1,320.3,115.1,319.4,114.6,318.8z M100.1,318.2c0-1.2,0.9-2.3,2-2.3
	c1.1,0,2,1,2,2.3c0,1.3-0.9,2.3-2,2.3C101,320.5,100.1,319.4,100.1,318.2z M103.6,323.6c-0.2,0.4-0.6,0.5-1,0.3
	c-0.4-0.2-0.5-0.7-0.2-1l3.9-7c0.2-0.4,0.6-0.5,1-0.3c0.4,0.2,0.5,0.7,0.2,1L103.6,323.6z M107.9,323.6c-1.1,0-2-1-2-2.3
	c0-1.2,0.9-2.3,2-2.3c1.1,0,2,1,2,2.3C109.9,322.6,109,323.6,107.9,323.6z M102.1,317.3c-0.3,0-0.6,0.4-0.6,0.9
	c0,0.5,0.3,0.9,0.6,0.9c0.3,0,0.6-0.4,0.6-0.9S102.4,317.3,102.1,317.3z M107.9,320.5c-0.3,0-0.6,0.4-0.6,0.9c0,0.5,0.3,0.9,0.6,0.9
	c0.3,0,0.6-0.4,0.6-0.9S108.3,320.5,107.9,320.5z"/>
</svg>
